<svg width="144" height="51" viewBox="0 0 144 51" fill="none" xmlns="http://www.w3.org/2000/svg">
<path d="M65.4805 22.5469V13.2089H68.5745C69.3865 13.2089 70.0165 13.3255 70.4645 13.5589C70.9125 13.7829 71.2252 14.0862 71.4025 14.4689C71.5892 14.8422 71.6825 15.2575 71.6825 15.7149C71.6825 16.1162 71.6219 16.4289 71.5005 16.6529C71.3792 16.8769 71.2299 17.0635 71.0525 17.2129C70.8845 17.3529 70.7212 17.4975 70.5625 17.6469L70.4505 17.4649C70.6932 17.5489 70.9545 17.6889 71.2345 17.8849C71.5145 18.0715 71.7525 18.3282 71.9485 18.6549C72.1445 18.9815 72.2425 19.3969 72.2425 19.9009C72.2425 20.5262 72.1072 21.0349 71.8365 21.4269C71.5659 21.8095 71.1739 22.0942 70.6605 22.2809C70.1565 22.4582 69.5545 22.5469 68.8545 22.5469H65.4805ZM66.4885 21.6089H68.9385C69.3399 21.6089 69.7132 21.5669 70.0585 21.4829C70.4132 21.3989 70.6979 21.2309 70.9125 20.9789C71.1272 20.7175 71.2345 20.3395 71.2345 19.8449C71.2345 19.4715 71.1645 19.1775 71.0245 18.9629C70.8845 18.7389 70.6979 18.5755 70.4645 18.4729C70.2405 18.3609 69.9885 18.2909 69.7085 18.2629C69.4379 18.2255 69.1672 18.2069 68.8965 18.2069H66.4885V21.6089ZM66.4885 17.2549H68.7985C69.1065 17.2549 69.4005 17.2269 69.6805 17.1709C69.9699 17.1055 70.2079 16.9702 70.3945 16.7649C70.5812 16.5502 70.6745 16.2235 70.6745 15.7849C70.6745 15.1502 70.4972 14.7255 70.1425 14.5109C69.7879 14.2869 69.2979 14.1749 68.6725 14.1749H66.4885V17.2549ZM76.6095 22.7569C76.3015 22.7569 75.9889 22.7242 75.6715 22.6589C75.3635 22.5935 75.0742 22.4815 74.8035 22.3229C74.5422 22.1642 74.3275 21.9495 74.1595 21.6789C74.0009 21.3989 73.9215 21.0489 73.9215 20.6289C73.9215 20.0502 74.0289 19.5882 74.2435 19.2429C74.4675 18.8882 74.7709 18.6362 75.1535 18.4869C75.5455 18.3282 75.9935 18.2489 76.4975 18.2489C76.8802 18.2489 77.2115 18.2722 77.4915 18.3189C77.7715 18.3655 78.0189 18.4355 78.2335 18.5289C78.4575 18.6129 78.6582 18.7109 78.8355 18.8229L79.0315 19.7469C78.8169 19.5882 78.5042 19.4529 78.0935 19.3409C77.6922 19.2195 77.2489 19.1589 76.7635 19.1589C76.1755 19.1589 75.7229 19.2709 75.4055 19.4949C75.0882 19.7189 74.9295 20.0455 74.9295 20.4749C74.9295 20.8202 75.0229 21.0955 75.2095 21.3009C75.4055 21.5062 75.6482 21.6509 75.9375 21.7349C76.2362 21.8189 76.5395 21.8609 76.8475 21.8609C77.4542 21.8609 77.9115 21.8189 78.2195 21.7349C78.5369 21.6415 78.6955 21.4362 78.6955 21.1189V17.9129C78.6955 17.3715 78.5369 16.9749 78.2195 16.7229C77.9022 16.4709 77.4495 16.3449 76.8615 16.3449C76.4882 16.3449 76.0915 16.4009 75.6715 16.5129C75.2609 16.6155 74.9062 16.7835 74.6075 17.0169V16.0089C74.8969 15.8222 75.2842 15.6822 75.7695 15.5889C76.2549 15.4862 76.7262 15.4349 77.1835 15.4349C77.4915 15.4349 77.7762 15.4675 78.0375 15.5329C78.2989 15.5889 78.5322 15.6775 78.7375 15.7989C78.9429 15.9109 79.1155 16.0602 79.2555 16.2469C79.4049 16.4242 79.5169 16.6342 79.5915 16.8769C79.6755 17.1102 79.7175 17.3762 79.7175 17.6749V21.0629C79.7175 21.5575 79.5682 21.9262 79.2695 22.1689C78.9802 22.4115 78.5975 22.5702 78.1215 22.6449C77.6549 22.7195 77.1509 22.7569 76.6095 22.7569ZM81.9535 16.1209C82.1775 16.0089 82.4062 15.9109 82.6395 15.8269C82.8822 15.7335 83.1248 15.6589 83.3675 15.6029C83.6195 15.5469 83.8715 15.5049 84.1235 15.4769C84.3848 15.4489 84.6462 15.4349 84.9075 15.4349C85.5888 15.4349 86.1302 15.5375 86.5315 15.7429C86.9328 15.9389 87.2222 16.2282 87.3995 16.6109C87.5862 16.9935 87.6795 17.4555 87.6795 17.9969V22.5469H86.6715V17.9969C86.6715 17.8289 86.6482 17.6515 86.6015 17.4649C86.5642 17.2782 86.4848 17.1009 86.3635 16.9329C86.2422 16.7555 86.0555 16.6155 85.8035 16.5129C85.5515 16.4009 85.2155 16.3449 84.7955 16.3449C84.5062 16.3449 84.2075 16.3682 83.8995 16.4149C83.5915 16.4615 83.2788 16.5315 82.9615 16.6249V22.5469H81.9535V16.1209ZM90.7082 18.3609L93.7742 15.5609H95.0342L90.9322 19.1869L90.7082 18.3609ZM90.9322 22.5469H89.9242V12.9009H90.9322V22.5469ZM91.2122 18.1929L95.5382 22.5469H94.1942L90.5262 18.8369L91.2122 18.1929ZM105.181 22.6869C104.229 22.6869 103.431 22.5095 102.787 22.1549C102.143 21.7909 101.658 21.2542 101.331 20.5449C101.014 19.8262 100.855 18.9349 100.855 17.8709C100.855 16.8069 101.014 15.9202 101.331 15.2109C101.658 14.5015 102.143 13.9695 102.787 13.6149C103.431 13.2602 104.229 13.0829 105.181 13.0829C105.694 13.0829 106.198 13.1342 106.693 13.2369C107.188 13.3395 107.664 13.4982 108.121 13.7129V14.7629C107.682 14.5669 107.225 14.3989 106.749 14.2589C106.273 14.1095 105.788 14.0349 105.293 14.0349C104.509 14.0349 103.86 14.1749 103.347 14.4549C102.843 14.7255 102.47 15.1455 102.227 15.7149C101.984 16.2749 101.863 16.9935 101.863 17.8709C101.863 18.7482 101.984 19.4715 102.227 20.0409C102.47 20.6102 102.843 21.0349 103.347 21.3149C103.86 21.5855 104.509 21.7209 105.293 21.7209C105.666 21.7209 106.03 21.6929 106.385 21.6369C106.74 21.5809 107.09 21.4969 107.435 21.3849V18.7249H105.181V17.7449H108.443V21.9589C107.93 22.2015 107.402 22.3835 106.861 22.5049C106.32 22.6262 105.76 22.6869 105.181 22.6869ZM110.746 22.5469V16.1209C110.858 16.0742 111.073 15.9949 111.39 15.8829C111.717 15.7709 112.104 15.6682 112.552 15.5749C113.01 15.4815 113.481 15.4349 113.966 15.4349C114.041 15.4349 114.116 15.4442 114.19 15.4629C114.265 15.4815 114.34 15.5002 114.414 15.5189V16.4149C114.172 16.3869 113.934 16.3729 113.7 16.3729C113.476 16.3729 113.257 16.3869 113.042 16.4149C112.828 16.4335 112.613 16.4615 112.398 16.4989C112.184 16.5362 111.969 16.5735 111.754 16.6109V22.5469H110.746ZM118.432 22.7569C118.124 22.7569 117.811 22.7242 117.494 22.6589C117.186 22.5935 116.896 22.4815 116.626 22.3229C116.364 22.1642 116.15 21.9495 115.982 21.6789C115.823 21.3989 115.744 21.0489 115.744 20.6289C115.744 20.0502 115.851 19.5882 116.066 19.2429C116.29 18.8882 116.593 18.6362 116.976 18.4869C117.368 18.3282 117.816 18.2489 118.32 18.2489C118.702 18.2489 119.034 18.2722 119.314 18.3189C119.594 18.3655 119.841 18.4355 120.056 18.5289C120.28 18.6129 120.48 18.7109 120.658 18.8229L120.854 19.7469C120.639 19.5882 120.326 19.4529 119.916 19.3409C119.514 19.2195 119.071 19.1589 118.586 19.1589C117.998 19.1589 117.545 19.2709 117.228 19.4949C116.91 19.7189 116.752 20.0455 116.752 20.4749C116.752 20.8202 116.845 21.0955 117.032 21.3009C117.228 21.5062 117.47 21.6509 117.76 21.7349C118.058 21.8189 118.362 21.8609 118.67 21.8609C119.276 21.8609 119.734 21.8189 120.042 21.7349C120.359 21.6415 120.518 21.4362 120.518 21.1189V17.9129C120.518 17.3715 120.359 16.9749 120.042 16.7229C119.724 16.4709 119.272 16.3449 118.684 16.3449C118.31 16.3449 117.914 16.4009 117.494 16.5129C117.083 16.6155 116.728 16.7835 116.43 17.0169V16.0089C116.719 15.8222 117.106 15.6822 117.592 15.5889C118.077 15.4862 118.548 15.4349 119.006 15.4349C119.314 15.4349 119.598 15.4675 119.86 15.5329C120.121 15.5889 120.354 15.6775 120.56 15.7989C120.765 15.9109 120.938 16.0602 121.078 16.2469C121.227 16.4242 121.339 16.6342 121.414 16.8769C121.498 17.1102 121.54 17.3762 121.54 17.6749V21.0629C121.54 21.5575 121.39 21.9262 121.092 22.1689C120.802 22.4115 120.42 22.5702 119.944 22.6449C119.477 22.7195 118.973 22.7569 118.432 22.7569ZM126.674 22.7569C126.338 22.7569 125.983 22.7055 125.61 22.6029C125.236 22.5095 124.882 22.3322 124.546 22.0709C124.219 21.8002 123.948 21.4175 123.734 20.9229C123.528 20.4189 123.426 19.7655 123.426 18.9629C123.426 17.8802 123.687 17.0262 124.21 16.4009C124.742 15.7662 125.544 15.4489 126.618 15.4489C126.823 15.4489 127.066 15.4769 127.346 15.5329C127.626 15.5889 127.901 15.6589 128.172 15.7429C128.442 15.8269 128.666 15.9155 128.844 16.0089L128.494 16.3589V12.6069H129.502V21.3429C129.502 21.6042 129.408 21.8282 129.222 22.0149C129.044 22.1922 128.811 22.3369 128.522 22.4489C128.232 22.5515 127.924 22.6262 127.598 22.6729C127.271 22.7289 126.963 22.7569 126.674 22.7569ZM126.688 21.8329C127.173 21.8329 127.593 21.7769 127.948 21.6649C128.312 21.5529 128.494 21.4129 128.494 21.2449V16.8629C128.204 16.6949 127.892 16.5735 127.556 16.4989C127.229 16.4149 126.916 16.3729 126.618 16.3729C126.114 16.3729 125.703 16.4849 125.386 16.7089C125.078 16.9235 124.849 17.2269 124.7 17.6189C124.56 18.0015 124.49 18.4495 124.49 18.9629C124.49 19.4669 124.546 19.9382 124.658 20.3769C124.77 20.8062 124.984 21.1562 125.302 21.4269C125.619 21.6975 126.081 21.8329 126.688 21.8329ZM134.63 22.7569C133.968 22.7569 133.394 22.6215 132.908 22.3509C132.423 22.0709 132.05 21.6555 131.788 21.1049C131.527 20.5542 131.396 19.8682 131.396 19.0469C131.396 17.8429 131.667 16.9422 132.208 16.3449C132.759 15.7382 133.51 15.4349 134.462 15.4349C135.209 15.4349 135.806 15.6029 136.254 15.9389C136.712 16.2749 137.038 16.7275 137.234 17.2969C137.43 17.8662 137.524 18.5102 137.514 19.2289H131.9L131.97 18.3049H136.856L136.464 18.4449C136.436 17.7449 136.259 17.2222 135.932 16.8769C135.615 16.5315 135.125 16.3589 134.462 16.3589C134.005 16.3589 133.622 16.4429 133.314 16.6109C133.016 16.7789 132.792 17.0729 132.642 17.4929C132.493 17.9035 132.418 18.4822 132.418 19.2289C132.418 20.0782 132.614 20.7269 133.006 21.1749C133.408 21.6135 133.968 21.8329 134.686 21.8329C135.032 21.8329 135.349 21.8095 135.638 21.7629C135.928 21.7069 136.194 21.6322 136.436 21.5389C136.679 21.4455 136.894 21.3429 137.08 21.2309V22.2669C136.744 22.4255 136.371 22.5469 135.96 22.6309C135.559 22.7149 135.116 22.7569 134.63 22.7569ZM68.1265 38.6869C67.6599 38.6869 67.2632 38.6542 66.9365 38.5889C66.6099 38.5235 66.3159 38.4302 66.0545 38.3089C65.7932 38.1875 65.5085 38.0475 65.2005 37.8889V36.7969C65.4992 37.0489 65.9005 37.2729 66.4045 37.4689C66.9085 37.6649 67.4965 37.7629 68.1685 37.7629C68.8779 37.7629 69.3912 37.6135 69.7085 37.3149C70.0352 37.0069 70.1985 36.6195 70.1985 36.1529C70.1985 35.7609 70.0912 35.4482 69.8765 35.2149C69.6619 34.9722 69.3865 34.7762 69.0505 34.6269C68.7145 34.4682 68.3599 34.3189 67.9865 34.1789C67.6692 34.0669 67.3519 33.9502 67.0345 33.8289C66.7265 33.6982 66.4465 33.5395 66.1945 33.3529C65.9425 33.1569 65.7419 32.9095 65.5925 32.6109C65.4432 32.3029 65.3685 31.9202 65.3685 31.4629C65.3685 31.2109 65.4152 30.9449 65.5085 30.6649C65.6112 30.3849 65.7699 30.1235 65.9845 29.8809C66.2085 29.6382 66.5025 29.4422 66.8665 29.2929C67.2399 29.1435 67.6925 29.0689 68.2245 29.0689C68.5885 29.0689 68.8965 29.0969 69.1485 29.1529C69.4099 29.1995 69.6572 29.2742 69.8905 29.3769C70.1239 29.4702 70.3852 29.5869 70.6745 29.7269V30.7629C70.4319 30.6229 70.1985 30.4969 69.9745 30.3849C69.7599 30.2635 69.5172 30.1702 69.2465 30.1049C68.9852 30.0302 68.6632 29.9929 68.2805 29.9929C67.8232 29.9929 67.4545 30.0582 67.1745 30.1889C66.9039 30.3195 66.7032 30.4922 66.5725 30.7069C66.4512 30.9215 66.3905 31.1502 66.3905 31.3929C66.3905 31.7755 66.4745 32.0789 66.6425 32.3029C66.8199 32.5269 67.0625 32.7135 67.3705 32.8629C67.6879 33.0029 68.0519 33.1429 68.4625 33.2829C68.7892 33.3949 69.1159 33.5209 69.4425 33.6609C69.7692 33.7915 70.0632 33.9595 70.3245 34.1649C70.5952 34.3609 70.8099 34.6129 70.9685 34.9209C71.1365 35.2195 71.2205 35.5929 71.2205 36.0409C71.2205 36.4609 71.1272 36.8762 70.9405 37.2869C70.7539 37.6882 70.4365 38.0242 69.9885 38.2949C69.5405 38.5562 68.9199 38.6869 68.1265 38.6869ZM76.0602 38.7569C75.3975 38.7569 74.8235 38.6215 74.3382 38.3509C73.8528 38.0709 73.4795 37.6555 73.2182 37.1049C72.9568 36.5542 72.8262 35.8682 72.8262 35.0469C72.8262 33.8429 73.0968 32.9422 73.6382 32.3449C74.1888 31.7382 74.9402 31.4349 75.8922 31.4349C76.6388 31.4349 77.2362 31.6029 77.6842 31.9389C78.1415 32.2749 78.4682 32.7275 78.6642 33.2969C78.8602 33.8662 78.9535 34.5102 78.9442 35.2289H73.3302L73.4002 34.3049H78.2862L77.8942 34.4449C77.8662 33.7449 77.6888 33.2222 77.3622 32.8769C77.0448 32.5315 76.5548 32.3589 75.8922 32.3589C75.4348 32.3589 75.0522 32.4429 74.7442 32.6109C74.4455 32.7789 74.2215 33.0729 74.0722 33.4929C73.9228 33.9035 73.8482 34.4822 73.8482 35.2289C73.8482 36.0782 74.0442 36.7269 74.4362 37.1749C74.8375 37.6135 75.3975 37.8329 76.1162 37.8329C76.4615 37.8329 76.7788 37.8095 77.0682 37.7629C77.3575 37.7069 77.6235 37.6322 77.8662 37.5389C78.1088 37.4455 78.3235 37.3429 78.5102 37.2309V38.2669C78.1742 38.4255 77.8008 38.5469 77.3902 38.6309C76.9888 38.7149 76.5455 38.7569 76.0602 38.7569ZM83.7584 38.6589C83.3851 38.6589 83.0024 38.6122 82.6104 38.5189C82.2277 38.4162 81.8731 38.2389 81.5464 37.9869C81.2291 37.7255 80.9724 37.3569 80.7764 36.8809C80.5804 36.4049 80.4824 35.7935 80.4824 35.0469C80.4824 34.3002 80.5804 33.6935 80.7764 33.2269C80.9724 32.7509 81.2291 32.3822 81.5464 32.1209C81.8731 31.8595 82.2277 31.6822 82.6104 31.5889C83.0024 31.4862 83.3851 31.4349 83.7584 31.4349C84.1131 31.4349 84.4631 31.4675 84.8084 31.5329C85.1631 31.5982 85.5037 31.6962 85.8304 31.8269V32.7929C85.5224 32.6622 85.2051 32.5642 84.8784 32.4989C84.5517 32.4335 84.2157 32.4009 83.8704 32.4009C83.0397 32.4009 82.4331 32.6109 82.0504 33.0309C81.6771 33.4509 81.4904 34.1229 81.4904 35.0469C81.4904 35.9802 81.6771 36.6569 82.0504 37.0769C82.4331 37.4875 83.0397 37.6929 83.8704 37.6929C84.2157 37.6929 84.5517 37.6602 84.8784 37.5949C85.2051 37.5295 85.5224 37.4315 85.8304 37.3009V38.2809C85.5037 38.4022 85.1631 38.4955 84.8084 38.5609C84.4631 38.6262 84.1131 38.6589 83.7584 38.6589ZM90.649 38.7569C90.033 38.7569 89.5057 38.6495 89.067 38.4349C88.6284 38.2202 88.2924 37.9075 88.059 37.4969C87.835 37.0862 87.723 36.5822 87.723 35.9849V31.5609H88.731V35.7609C88.731 36.4702 88.885 36.9929 89.193 37.3289C89.5104 37.6555 89.9957 37.8189 90.649 37.8189C91.3024 37.8189 91.783 37.6555 92.091 37.3289C92.4084 36.9929 92.567 36.4702 92.567 35.7609V31.5609H93.575V35.9849C93.575 36.8715 93.3184 37.5575 92.805 38.0429C92.301 38.5189 91.5824 38.7569 90.649 38.7569ZM95.8168 38.5469V32.1209C95.9288 32.0742 96.1434 31.9949 96.4608 31.8829C96.7874 31.7709 97.1748 31.6682 97.6228 31.5749C98.0801 31.4815 98.5514 31.4349 99.0368 31.4349C99.1114 31.4349 99.1861 31.4442 99.2608 31.4629C99.3354 31.4815 99.4101 31.5002 99.4848 31.5189V32.4149C99.2421 32.3869 99.0041 32.3729 98.7708 32.3729C98.5468 32.3729 98.3274 32.3869 98.1128 32.4149C97.8981 32.4335 97.6834 32.4615 97.4688 32.4989C97.2541 32.5362 97.0394 32.5735 96.8248 32.6109V38.5469H95.8168ZM101.15 38.5469V31.5609H102.158V38.5469H101.15ZM101.094 30.3149V29.2089H102.214V30.3149H101.094ZM106.655 38.6589C106.161 38.6589 105.745 38.5095 105.409 38.2109C105.073 37.9029 104.905 37.4502 104.905 36.8529V32.4849H103.687V31.5609H104.905V29.5869H105.913V31.5609H107.719V32.4849H105.913V36.5309C105.913 36.9229 105.974 37.2169 106.095 37.4129C106.217 37.6089 106.464 37.7069 106.837 37.7069C107.005 37.7069 107.169 37.6929 107.327 37.6649C107.486 37.6275 107.617 37.5855 107.719 37.5389V38.4909C107.589 38.5375 107.421 38.5749 107.215 38.6029C107.019 38.6402 106.833 38.6589 106.655 38.6589ZM110.299 41.2489C110.159 41.2489 110.033 41.2349 109.921 41.2069C109.809 41.1789 109.716 41.1509 109.641 41.1229V40.1989C109.707 40.2269 109.791 40.2549 109.893 40.2829C109.996 40.3109 110.113 40.3249 110.243 40.3249C110.561 40.3249 110.817 40.2362 111.013 40.0589C111.209 39.8815 111.373 39.6435 111.503 39.3449C111.643 39.0462 111.769 38.7149 111.881 38.3509V38.7569L108.913 31.5609H110.061L112.385 37.5249H112.175L114.485 31.5609H115.493L112.497 39.2329C112.283 39.7835 112.045 40.2035 111.783 40.4929C111.531 40.7822 111.275 40.9782 111.013 41.0809C110.761 41.1929 110.523 41.2489 110.299 41.2489Z" fill="#7E7E7E"/>
<path d="M50.2385 25.5955C50.2385 28.7417 46.9327 31.2078 45.8002 33.9459C44.6677 36.684 45.1734 40.8533 43.0355 42.9911C40.8977 45.1289 36.829 44.579 33.9933 45.7558C31.1576 46.9327 28.792 50.1941 25.6429 50.1941C22.4938 50.1941 20.0307 46.8883 17.2926 45.7558C14.5545 44.6233 10.3853 45.1289 8.24747 42.9911C6.10963 40.8533 6.65958 36.7846 5.48273 33.9489C4.34728 31.2138 1.04443 28.7476 1.04443 25.5985C1.04443 22.4523 4.35024 19.9863 5.48273 17.2482C6.61523 14.5101 6.10963 10.3409 8.24747 8.20302C10.3853 6.06518 14.454 6.61516 17.2897 5.43831C20.1254 4.26147 22.4909 1 25.64 1C28.7891 1 31.2522 4.30582 33.9903 5.43831C36.7284 6.57081 40.8977 6.06518 43.0355 8.20302C45.1734 10.3409 44.6234 14.4096 45.8002 17.2452C46.9357 19.9804 50.2385 22.4464 50.2385 25.5955Z" stroke="black" stroke-width="0.5" stroke-miterlimit="10"/>
<path d="M25.6407 41.3625C34.3465 41.3625 41.404 34.305 41.404 25.5992C41.404 16.8934 34.3465 9.83594 25.6407 9.83594C16.9349 9.83594 9.87744 16.8934 9.87744 25.5992C9.87744 34.305 16.9349 41.3625 25.6407 41.3625Z" stroke="black" stroke-width="0.5" stroke-miterlimit="10"/>
<path d="M50.2385 25.5955C50.2385 28.7417 46.9327 31.2078 45.8002 33.9459C44.6677 36.684 45.1734 40.8533 43.0355 42.9911C40.8977 45.1289 36.829 44.579 33.9933 45.7558C31.1576 46.9327 28.792 50.1941 25.6429 50.1941C22.4938 50.1941 20.0307 46.8883 17.2926 45.7558C14.5545 44.6233 10.3853 45.1289 8.24747 42.9911C6.10963 40.8533 6.65958 36.7846 5.48273 33.9489C4.34728 31.2138 1.04443 28.7476 1.04443 25.5985C1.04443 22.4523 4.35024 19.9863 5.48273 17.2482C6.61523 14.5101 6.10963 10.3409 8.24747 8.20302C10.3853 6.06518 14.454 6.61516 17.2897 5.43831C20.1254 4.26147 22.4909 1 25.64 1C28.7891 1 31.2522 4.30582 33.9903 5.43831C36.7284 6.57081 40.8977 6.06518 43.0355 8.20302C45.1734 10.3409 44.6234 14.4096 45.8002 17.2452C46.9357 19.9804 50.2385 22.4464 50.2385 25.5955Z" stroke="black" stroke-width="0.6" stroke-miterlimit="10"/>
<path d="M48.8123 25.5922C48.8123 28.555 45.6987 30.8791 44.6313 33.4575C43.5638 36.036 44.0399 39.9627 42.0262 41.9764C40.0126 43.99 36.1775 43.4726 33.5074 44.5814C30.8373 45.6903 28.6048 48.7625 25.642 48.7625C22.6792 48.7625 20.3551 45.6489 17.7766 44.5814C15.1982 43.514 11.2714 43.99 9.25778 41.9764C7.24413 39.9627 7.76159 36.1276 6.65275 33.4575C5.58531 30.8791 2.47168 28.555 2.47168 25.5922C2.47168 22.6294 5.58531 20.3052 6.65275 17.7268C7.72019 15.1484 7.24413 11.2216 9.25778 9.20797C11.2714 7.19431 15.1065 7.71177 17.7766 6.60293C20.4467 5.49409 22.6792 2.42188 25.642 2.42188C28.6048 2.42188 30.929 5.53549 33.5074 6.60293C36.1804 7.71177 40.0126 7.19431 42.0262 9.20797C44.0399 11.2216 43.5224 15.0567 44.6313 17.7268C45.6987 20.3052 48.8123 22.6294 48.8123 25.5922Z" stroke="black" stroke-width="0.3" stroke-miterlimit="10"/>
<path d="M25.6407 41.3625C34.3465 41.3625 41.404 34.305 41.404 25.5992C41.404 16.8934 34.3465 9.83594 25.6407 9.83594C16.9349 9.83594 9.87744 16.8934 9.87744 25.5992C9.87744 34.305 16.9349 41.3625 25.6407 41.3625Z" stroke="black" stroke-width="0.5" stroke-miterlimit="10"/>
<path d="M35.8512 21.8161L25.9913 15.8594L15.5938 21.8161V23.1527H35.8512V21.8161Z" stroke="black" stroke-miterlimit="10"/>
<path d="M16.9102 31.3672H34.7318" stroke="black" stroke-miterlimit="10"/>
<path d="M16.7798 25.1328H34.5966" stroke="black" stroke-miterlimit="10"/>
<path d="M18.5195 25.5312V30.9649" stroke="black" stroke-miterlimit="10"/>
<path d="M28.1631 25.6641V31.1026" stroke="black" stroke-miterlimit="10"/>
<path d="M33.0303 25.6641V31.1026" stroke="black" stroke-miterlimit="10"/>
<path d="M23.3472 25.6641V31.1026" stroke="black" stroke-miterlimit="10"/>
<path d="M15.0244 33.5938H36.3619" stroke="black" stroke-miterlimit="10"/>
<path d="M25.8813 21.0721C26.475 21.0721 26.9564 20.5908 26.9564 19.997C26.9564 19.4033 26.475 18.9219 25.8813 18.9219C25.2875 18.9219 24.8062 19.4033 24.8062 19.997C24.8062 20.5908 25.2875 21.0721 25.8813 21.0721Z" stroke="black" stroke-miterlimit="10"/>
</svg>
