<svg width="140" height="51" viewBox="0 0 140 51" fill="none" xmlns="http://www.w3.org/2000/svg">
<path d="M68.9134 22.6589C67.476 22.6589 66.3934 22.2575 65.6654 21.4549C64.9467 20.6522 64.5874 19.4575 64.5874 17.8709C64.5874 16.2842 64.9467 15.0895 65.6654 14.2869C66.3934 13.4842 67.476 13.0829 68.9134 13.0829C69.408 13.0829 69.8934 13.1435 70.3694 13.2649C70.8454 13.3862 71.3074 13.5542 71.7554 13.7689V14.7349C71.326 14.5015 70.8827 14.3289 70.4254 14.2169C69.968 14.0955 69.5014 14.0349 69.0254 14.0349C68.2414 14.0349 67.5974 14.1702 67.0934 14.4409C66.5987 14.7115 66.23 15.1315 65.9874 15.7009C65.754 16.2609 65.6374 16.9842 65.6374 17.8709C65.6374 18.7575 65.754 19.4855 65.9874 20.0549C66.23 20.6149 66.5987 21.0302 67.0934 21.3009C67.5974 21.5715 68.2414 21.7069 69.0254 21.7069C69.5014 21.7069 69.968 21.6509 70.4254 21.5389C70.8827 21.4269 71.326 21.2542 71.7554 21.0209V21.9869C71.4567 22.1269 71.1487 22.2482 70.8314 22.3509C70.5234 22.4535 70.206 22.5282 69.8794 22.5749C69.562 22.6309 69.24 22.6589 68.9134 22.6589ZM76.5164 22.7569C75.4244 22.7569 74.6124 22.4349 74.0804 21.7909C73.5577 21.1375 73.2964 20.2322 73.2964 19.0749C73.2964 17.8615 73.5717 16.9515 74.1224 16.3449C74.6824 15.7382 75.471 15.4349 76.4884 15.4349C77.2444 15.4349 77.8604 15.5889 78.3364 15.8969C78.8124 16.1955 79.1624 16.6202 79.3864 17.1709C79.6104 17.7122 79.7224 18.3469 79.7224 19.0749C79.7224 20.2229 79.4424 21.1235 78.8824 21.7769C78.3317 22.4302 77.543 22.7569 76.5164 22.7569ZM76.5024 21.8329C77.0717 21.8329 77.515 21.7115 77.8324 21.4689C78.1497 21.2169 78.3737 20.8855 78.5044 20.4749C78.6444 20.0549 78.7144 19.5882 78.7144 19.0749C78.7144 18.5242 78.6444 18.0482 78.5044 17.6469C78.3644 17.2362 78.131 16.9189 77.8044 16.6949C77.487 16.4709 77.053 16.3589 76.5024 16.3589C75.9424 16.3589 75.5037 16.4802 75.1864 16.7229C74.869 16.9655 74.6404 17.2922 74.5004 17.7029C74.3697 18.1042 74.3044 18.5615 74.3044 19.0749C74.3044 19.8962 74.4677 20.5635 74.7944 21.0769C75.121 21.5809 75.6904 21.8329 76.5024 21.8329ZM87.3431 17.9969V22.5469H86.3351V17.9969C86.3351 17.8289 86.3117 17.6515 86.2651 17.4649C86.2277 17.2782 86.1484 17.1009 86.0271 16.9329C85.9057 16.7555 85.7191 16.6155 85.4671 16.5129C85.2151 16.4009 84.8791 16.3449 84.4591 16.3449C84.1697 16.3449 83.8711 16.3682 83.5631 16.4149C83.2551 16.4615 82.9424 16.5315 82.6251 16.6249V22.5469H81.6171V16.1209C81.8411 16.0089 82.0697 15.9109 82.3031 15.8269C82.5457 15.7335 82.7884 15.6589 83.0311 15.6029C83.2831 15.5469 83.5351 15.5049 83.7871 15.4769C84.0484 15.4489 84.3097 15.4349 84.5711 15.4349C85.2524 15.4349 85.7937 15.5375 86.1951 15.7429C86.5964 15.9389 86.8857 16.2282 87.0631 16.6109C87.2497 16.9935 87.3431 17.4555 87.3431 17.9969ZM86.0131 16.4009C86.3211 16.1675 86.6337 15.9809 86.9511 15.8409C87.2684 15.7009 87.5951 15.5982 87.9311 15.5329C88.2764 15.4675 88.6217 15.4349 88.9671 15.4349C89.6484 15.4349 90.1897 15.5375 90.5911 15.7429C90.9924 15.9389 91.2817 16.2282 91.4591 16.6109C91.6457 16.9935 91.7391 17.4555 91.7391 17.9969V22.5469H90.7311V17.9969C90.7311 17.8289 90.7077 17.6515 90.6611 17.4649C90.6237 17.2782 90.5444 17.1009 90.4231 16.9329C90.3017 16.7555 90.1151 16.6155 89.8631 16.5129C89.6111 16.4009 89.2751 16.3449 88.8551 16.3449C88.5657 16.3449 88.2671 16.3869 87.9591 16.4709C87.6511 16.5549 87.3384 16.6995 87.0211 16.9049L86.0131 16.4009ZM96.7204 22.7429C96.5151 22.7429 96.2818 22.7149 96.0204 22.6589C95.7684 22.6029 95.5211 22.5329 95.2784 22.4489C95.0358 22.3649 94.8211 22.2762 94.6344 22.1829L94.9844 21.8329V25.5849H93.9764V16.8209C93.9764 16.5315 94.0651 16.2982 94.2424 16.1209C94.4291 15.9435 94.6671 15.8082 94.9564 15.7149C95.2458 15.6122 95.5538 15.5422 95.8804 15.5049C96.2071 15.4582 96.5151 15.4349 96.8044 15.4349C97.3644 15.4349 97.8918 15.5515 98.3864 15.7849C98.8811 16.0182 99.2824 16.4149 99.5904 16.9749C99.8984 17.5255 100.052 18.2769 100.052 19.2289C100.052 19.9475 99.9218 20.5729 99.6604 21.1049C99.4084 21.6275 99.0351 22.0335 98.5404 22.3229C98.0458 22.6029 97.4391 22.7429 96.7204 22.7429ZM96.7204 21.8189C97.2338 21.8189 97.6538 21.7115 97.9804 21.4969C98.3164 21.2729 98.5684 20.9649 98.7364 20.5729C98.9044 20.1809 98.9884 19.7329 98.9884 19.2289C98.9884 18.7249 98.9324 18.2535 98.8204 17.8149C98.7084 17.3762 98.4938 17.0262 98.1764 16.7649C97.8591 16.4942 97.3971 16.3589 96.7904 16.3589C96.3051 16.3589 95.8804 16.4149 95.5164 16.5269C95.1618 16.6389 94.9844 16.7975 94.9844 17.0029V21.3289C95.2738 21.4969 95.5631 21.6229 95.8524 21.7069C96.1418 21.7815 96.4311 21.8189 96.7204 21.8189ZM102.955 22.5469H101.947V12.9009H102.955V22.5469ZM108.085 22.7569C107.422 22.7569 106.848 22.6215 106.363 22.3509C105.878 22.0709 105.504 21.6555 105.243 21.1049C104.982 20.5542 104.851 19.8682 104.851 19.0469C104.851 17.8429 105.122 16.9422 105.663 16.3449C106.214 15.7382 106.965 15.4349 107.917 15.4349C108.664 15.4349 109.261 15.6029 109.709 15.9389C110.166 16.2749 110.493 16.7275 110.689 17.2969C110.885 17.8662 110.978 18.5102 110.969 19.2289H105.355L105.425 18.3049H110.311L109.919 18.4449C109.891 17.7449 109.714 17.2222 109.387 16.8769C109.07 16.5315 108.58 16.3589 107.917 16.3589C107.46 16.3589 107.077 16.4429 106.769 16.6109C106.47 16.7789 106.246 17.0729 106.097 17.4929C105.948 17.9035 105.873 18.4822 105.873 19.2289C105.873 20.0782 106.069 20.7269 106.461 21.1749C106.862 21.6135 107.422 21.8329 108.141 21.8329C108.486 21.8329 108.804 21.8095 109.093 21.7629C109.382 21.7069 109.648 21.6322 109.891 21.5389C110.134 21.4455 110.348 21.3429 110.535 21.2309V22.2669C110.199 22.4255 109.826 22.5469 109.415 22.6309C109.014 22.7149 108.57 22.7569 108.085 22.7569ZM115.055 22.6589C114.561 22.6589 114.145 22.5095 113.809 22.2109C113.473 21.9029 113.305 21.4502 113.305 20.8529V16.4849H112.087V15.5609H113.305V13.5869H114.313V15.5609H116.119V16.4849H114.313V20.5309C114.313 20.9229 114.374 21.2169 114.495 21.4129C114.617 21.6089 114.864 21.7069 115.237 21.7069C115.405 21.7069 115.569 21.6929 115.727 21.6649C115.886 21.6275 116.017 21.5855 116.119 21.5389V22.4909C115.989 22.5375 115.821 22.5749 115.615 22.6029C115.419 22.6402 115.233 22.6589 115.055 22.6589ZM120.827 22.7569C120.165 22.7569 119.591 22.6215 119.105 22.3509C118.62 22.0709 118.247 21.6555 117.985 21.1049C117.724 20.5542 117.593 19.8682 117.593 19.0469C117.593 17.8429 117.864 16.9422 118.405 16.3449C118.956 15.7382 119.707 15.4349 120.659 15.4349C121.406 15.4349 122.003 15.6029 122.451 15.9389C122.909 16.2749 123.235 16.7275 123.431 17.2969C123.627 17.8662 123.721 18.5102 123.711 19.2289H118.097L118.167 18.3049H123.053L122.661 18.4449C122.633 17.7449 122.456 17.2222 122.129 16.8769C121.812 16.5315 121.322 16.3589 120.659 16.3589C120.202 16.3589 119.819 16.4429 119.511 16.6109C119.213 16.7789 118.989 17.0729 118.839 17.4929C118.69 17.9035 118.615 18.4822 118.615 19.2289C118.615 20.0782 118.811 20.7269 119.203 21.1749C119.605 21.6135 120.165 21.8329 120.883 21.8329C121.229 21.8329 121.546 21.8095 121.835 21.7629C122.125 21.7069 122.391 21.6322 122.633 21.5389C122.876 21.4455 123.091 21.3429 123.277 21.2309V22.2669C122.941 22.4255 122.568 22.5469 122.157 22.6309C121.756 22.7149 121.313 22.7569 120.827 22.7569ZM126.607 22.5469H125.599V12.9009H126.607V22.5469ZM129.609 25.2489C129.469 25.2489 129.343 25.2349 129.231 25.2069C129.119 25.1789 129.026 25.1509 128.951 25.1229V24.1989C129.017 24.2269 129.101 24.2549 129.203 24.2829C129.306 24.3109 129.423 24.3249 129.553 24.3249C129.871 24.3249 130.127 24.2362 130.323 24.0589C130.519 23.8815 130.683 23.6435 130.813 23.3449C130.953 23.0462 131.079 22.7149 131.191 22.3509V22.7569L128.223 15.5609H129.371L131.695 21.5249H131.485L133.795 15.5609H134.803L131.807 23.2329C131.593 23.7835 131.355 24.2035 131.093 24.4929C130.841 24.7822 130.585 24.9782 130.323 25.0809C130.071 25.1929 129.833 25.2489 129.609 25.2489ZM65.0074 38.5469V29.2089H67.9334C69.3894 29.2089 70.4814 29.6009 71.2094 30.3849C71.9467 31.1595 72.3154 32.3215 72.3154 33.8709C72.3154 35.4202 71.9467 36.5869 71.2094 37.3709C70.4814 38.1549 69.3894 38.5469 67.9334 38.5469H65.0074ZM66.0154 37.5949H67.8634C69.058 37.5949 69.926 37.2962 70.4674 36.6989C71.0087 36.1015 71.2794 35.1589 71.2794 33.8709C71.2794 32.5829 71.0087 31.6402 70.4674 31.0429C69.926 30.4455 69.058 30.1469 67.8634 30.1469H66.0154V37.5949ZM74.3313 38.5469V31.5609H75.3393V38.5469H74.3313ZM74.2753 30.3149V29.2089H75.3953V30.3149H74.2753ZM80.4806 38.7569C79.7619 38.7569 79.1646 38.6169 78.6886 38.3369C78.2219 38.0475 77.8719 37.6415 77.6386 37.1189C77.4052 36.5869 77.2886 35.9615 77.2886 35.2429C77.2886 34.4402 77.3959 33.7915 77.6106 33.2969C77.8252 32.7929 78.1006 32.4102 78.4366 32.1489C78.7819 31.8782 79.1552 31.6962 79.5566 31.6029C79.9672 31.5002 80.3639 31.4489 80.7466 31.4489C81.1852 31.4489 81.6006 31.5095 81.9926 31.6309C82.3939 31.7429 82.7206 31.9249 82.9726 32.1769C83.2339 32.4289 83.3646 32.7649 83.3646 33.1849V38.8409C83.3646 39.1209 83.3226 39.4055 83.2386 39.6949C83.1546 39.9842 83.0006 40.2502 82.7766 40.4929C82.5619 40.7449 82.2539 40.9455 81.8526 41.0949C81.4606 41.2442 80.9519 41.3189 80.3266 41.3189C79.9252 41.3189 79.5566 41.2815 79.2206 41.2069C78.8846 41.1322 78.5906 41.0622 78.3386 40.9969V40.0449C78.4879 40.0822 78.6559 40.1242 78.8426 40.1709C79.0386 40.2269 79.2486 40.2735 79.4726 40.3109C79.7059 40.3482 79.9532 40.3669 80.2146 40.3669C80.8492 40.3669 81.3159 40.2875 81.6146 40.1289C81.9226 39.9795 82.1232 39.7882 82.2166 39.5549C82.3099 39.3309 82.3566 39.1022 82.3566 38.8689V37.8469L82.7066 38.1969C82.5292 38.2902 82.3052 38.3789 82.0346 38.4629C81.7639 38.5469 81.4886 38.6169 81.2086 38.6729C80.9286 38.7289 80.6859 38.7569 80.4806 38.7569ZM80.4806 37.8329C80.7792 37.8329 81.0919 37.7955 81.4186 37.7209C81.7546 37.6369 82.0672 37.5109 82.3566 37.3429V33.3249C82.3566 33.0635 82.2819 32.8675 82.1326 32.7369C81.9926 32.5969 81.8012 32.5035 81.5586 32.4569C81.3159 32.4009 81.0546 32.3729 80.7746 32.3729C80.0932 32.3729 79.5799 32.5082 79.2346 32.7789C78.8892 33.0402 78.6559 33.3902 78.5346 33.8289C78.4132 34.2675 78.3526 34.7389 78.3526 35.2429C78.3526 36.0082 78.5159 36.6335 78.8426 37.1189C79.1692 37.5949 79.7152 37.8329 80.4806 37.8329ZM85.6653 38.5469V31.5609H86.6733V38.5469H85.6653ZM85.6093 30.3149V29.2089H86.7293V30.3149H85.6093ZM91.1705 38.6589C90.6759 38.6589 90.2605 38.5095 89.9245 38.2109C89.5885 37.9029 89.4205 37.4502 89.4205 36.8529V32.4849H88.2025V31.5609H89.4205V29.5869H90.4285V31.5609H92.2345V32.4849H90.4285V36.5309C90.4285 36.9229 90.4892 37.2169 90.6105 37.4129C90.7319 37.6089 90.9792 37.7069 91.3525 37.7069C91.5205 37.7069 91.6839 37.6929 91.8425 37.6649C92.0012 37.6275 92.1319 37.5855 92.2345 37.5389V38.4909C92.1039 38.5375 91.9359 38.5749 91.7305 38.6029C91.5345 38.6402 91.3479 38.6589 91.1705 38.6589ZM96.4665 38.7569C96.1585 38.7569 95.8458 38.7242 95.5285 38.6589C95.2205 38.5935 94.9311 38.4815 94.6605 38.3229C94.3991 38.1642 94.1845 37.9495 94.0165 37.6789C93.8578 37.3989 93.7785 37.0489 93.7785 36.6289C93.7785 36.0502 93.8858 35.5882 94.1005 35.2429C94.3245 34.8882 94.6278 34.6362 95.0105 34.4869C95.4025 34.3282 95.8505 34.2489 96.3545 34.2489C96.7371 34.2489 97.0685 34.2722 97.3485 34.3189C97.6285 34.3655 97.8758 34.4355 98.0905 34.5289C98.3145 34.6129 98.5151 34.7109 98.6925 34.8229L98.8885 35.7469C98.6738 35.5882 98.3611 35.4529 97.9505 35.3409C97.5491 35.2195 97.1058 35.1589 96.6205 35.1589C96.0325 35.1589 95.5798 35.2709 95.2625 35.4949C94.9451 35.7189 94.7865 36.0455 94.7865 36.4749C94.7865 36.8202 94.8798 37.0955 95.0665 37.3009C95.2625 37.5062 95.5051 37.6509 95.7945 37.7349C96.0931 37.8189 96.3965 37.8609 96.7045 37.8609C97.3111 37.8609 97.7685 37.8189 98.0765 37.7349C98.3938 37.6415 98.5525 37.4362 98.5525 37.1189V33.9129C98.5525 33.3715 98.3938 32.9749 98.0765 32.7229C97.7591 32.4709 97.3065 32.3449 96.7185 32.3449C96.3451 32.3449 95.9485 32.4009 95.5285 32.5129C95.1178 32.6155 94.7631 32.7835 94.4645 33.0169V32.0089C94.7538 31.8222 95.1411 31.6822 95.6265 31.5889C96.1118 31.4862 96.5831 31.4349 97.0405 31.4349C97.3485 31.4349 97.6331 31.4675 97.8945 31.5329C98.1558 31.5889 98.3891 31.6775 98.5945 31.7989C98.7998 31.9109 98.9725 32.0602 99.1125 32.2469C99.2618 32.4242 99.3738 32.6342 99.4485 32.8769C99.5325 33.1102 99.5745 33.3762 99.5745 33.6749V37.0629C99.5745 37.5575 99.4251 37.9262 99.1265 38.1689C98.8371 38.4115 98.4545 38.5702 97.9785 38.6449C97.5118 38.7195 97.0078 38.7569 96.4665 38.7569ZM102.818 38.5469H101.81V28.9009H102.818V38.5469ZM105.12 38.5469V31.5609H106.128V38.5469H105.12ZM105.064 30.3149V29.2089H106.184V30.3149H105.064ZM110.402 38.7569C109.898 38.7569 109.473 38.7055 109.128 38.6029C108.792 38.5002 108.442 38.3555 108.078 38.1689V37.1049C108.367 37.2635 108.624 37.3989 108.848 37.5109C109.072 37.6229 109.3 37.7069 109.534 37.7629C109.767 37.8095 110.033 37.8329 110.332 37.8329C110.798 37.8329 111.176 37.7302 111.466 37.5249C111.764 37.3195 111.914 37.0535 111.914 36.7269C111.914 36.4655 111.839 36.2649 111.69 36.1249C111.55 35.9849 111.368 35.8682 111.144 35.7749C110.92 35.6815 110.686 35.5835 110.444 35.4809C110.173 35.4062 109.898 35.3269 109.618 35.2429C109.347 35.1495 109.095 35.0329 108.862 34.8929C108.638 34.7435 108.456 34.5569 108.316 34.3329C108.176 34.0995 108.106 33.8009 108.106 33.4369C108.106 33.0822 108.176 32.7789 108.316 32.5269C108.465 32.2749 108.656 32.0695 108.89 31.9109C109.123 31.7429 109.384 31.6215 109.674 31.5469C109.963 31.4722 110.252 31.4349 110.542 31.4349C110.962 31.4349 111.321 31.4909 111.62 31.6029C111.918 31.7149 112.226 31.8409 112.544 31.9809V32.9889C112.189 32.8022 111.872 32.6529 111.592 32.5409C111.312 32.4195 110.98 32.3589 110.598 32.3589C110.215 32.3589 109.87 32.4382 109.562 32.5969C109.263 32.7462 109.114 32.9795 109.114 33.2969C109.114 33.5582 109.188 33.7682 109.338 33.9269C109.496 34.0762 109.702 34.1975 109.954 34.2909C110.206 34.3749 110.476 34.4589 110.766 34.5429C110.999 34.6175 111.242 34.7015 111.494 34.7949C111.746 34.8789 111.979 34.9955 112.194 35.1449C112.408 35.2849 112.581 35.4715 112.712 35.7049C112.852 35.9382 112.922 36.2369 112.922 36.6009C112.922 37.0955 112.796 37.5062 112.544 37.8329C112.292 38.1502 111.97 38.3835 111.578 38.5329C111.195 38.6822 110.803 38.7569 110.402 38.7569ZM117.696 38.7569C117.034 38.7569 116.46 38.6215 115.974 38.3509C115.489 38.0709 115.116 37.6555 114.854 37.1049C114.593 36.5542 114.462 35.8682 114.462 35.0469C114.462 33.8429 114.733 32.9422 115.274 32.3449C115.825 31.7382 116.576 31.4349 117.528 31.4349C118.275 31.4349 118.872 31.6029 119.32 31.9389C119.778 32.2749 120.104 32.7275 120.3 33.2969C120.496 33.8662 120.59 34.5102 120.58 35.2289H114.966L115.036 34.3049H119.922L119.53 34.4449C119.502 33.7449 119.325 33.2222 118.998 32.8769C118.681 32.5315 118.191 32.3589 117.528 32.3589C117.071 32.3589 116.688 32.4429 116.38 32.6109C116.082 32.7789 115.858 33.0729 115.708 33.4929C115.559 33.9035 115.484 34.4822 115.484 35.2289C115.484 36.0782 115.68 36.7269 116.072 37.1749C116.474 37.6135 117.034 37.8329 117.752 37.8329C118.098 37.8329 118.415 37.8095 118.704 37.7629C118.994 37.7069 119.26 37.6322 119.502 37.5389C119.745 37.4455 119.96 37.3429 120.146 37.2309V38.2669C119.81 38.4255 119.437 38.5469 119.026 38.6309C118.625 38.7149 118.182 38.7569 117.696 38.7569ZM125.367 38.7569C125.031 38.7569 124.676 38.7055 124.303 38.6029C123.929 38.5095 123.575 38.3322 123.239 38.0709C122.912 37.8002 122.641 37.4175 122.427 36.9229C122.221 36.4189 122.119 35.7655 122.119 34.9629C122.119 33.8802 122.38 33.0262 122.903 32.4009C123.435 31.7662 124.237 31.4489 125.311 31.4489C125.516 31.4489 125.759 31.4769 126.039 31.5329C126.319 31.5889 126.594 31.6589 126.865 31.7429C127.135 31.8269 127.359 31.9155 127.537 32.0089L127.187 32.3589V28.6069H128.195V37.3429C128.195 37.6042 128.101 37.8282 127.915 38.0149C127.737 38.1922 127.504 38.3369 127.215 38.4489C126.925 38.5515 126.617 38.6262 126.291 38.6729C125.964 38.7289 125.656 38.7569 125.367 38.7569ZM125.381 37.8329C125.866 37.8329 126.286 37.7769 126.641 37.6649C127.005 37.5529 127.187 37.4129 127.187 37.2449V32.8629C126.897 32.6949 126.585 32.5735 126.249 32.4989C125.922 32.4149 125.609 32.3729 125.311 32.3729C124.807 32.3729 124.396 32.4849 124.079 32.7089C123.771 32.9235 123.542 33.2269 123.393 33.6189C123.253 34.0015 123.183 34.4495 123.183 34.9629C123.183 35.4669 123.239 35.9382 123.351 36.3769C123.463 36.8062 123.677 37.1562 123.995 37.4269C124.312 37.6975 124.774 37.8329 125.381 37.8329Z" fill="#7E7E7E"/>
<path d="M26.4773 1.29197C27.5385 0.793388 28.7873 0.946797 29.699 1.68434C30.4055 2.25963 31.329 2.48679 32.2202 2.30978C33.3693 2.07967 34.5478 2.53105 35.2543 3.4692C35.8025 4.1979 36.6468 4.64042 37.5526 4.68173C38.7223 4.73483 39.7601 5.45467 40.2233 6.53739C40.5838 7.37524 41.2962 8.00953 42.1669 8.26915C43.2896 8.60252 44.1251 9.55248 44.3186 10.7148C44.4681 11.6147 45.0105 12.4024 45.7932 12.8655C46.8046 13.4615 47.3879 14.5825 47.3 15.7567C47.2326 16.6683 47.5697 17.5622 48.2205 18.1995C49.0618 19.0196 49.3609 20.2498 48.9973 21.3709C48.7159 22.2383 48.8302 23.1882 49.311 23.9641C49.9325 24.9642 49.9325 26.2299 49.311 27.23C48.8302 28.0059 48.7159 28.9558 48.9973 29.8232C49.3609 30.9443 49.0618 32.1745 48.2205 32.9947C47.5697 33.6319 47.2326 34.5258 47.3 35.4374C47.3879 36.6116 46.8016 37.7356 45.7932 38.3286C45.0105 38.7888 44.4681 39.5765 44.3186 40.4793C44.1251 41.6416 43.2896 42.5887 42.1669 42.925C41.2962 43.1846 40.5838 43.8189 40.2233 44.6567C39.7571 45.7395 38.7223 46.4593 37.5526 46.5124C36.6468 46.5537 35.8025 46.9992 35.2543 47.7249C34.5449 48.6631 33.3693 49.1115 32.2202 48.8844C31.329 48.7073 30.4055 48.9345 29.699 49.5098C28.7873 50.2503 27.5385 50.4037 26.4773 49.9022C25.6535 49.5157 24.7037 49.5157 23.8829 49.9022C22.8217 50.4007 21.5728 50.2473 20.6611 49.5098C19.9546 48.9345 19.0312 48.7073 18.14 48.8844C16.9908 49.1145 15.8123 48.6631 15.1058 47.7249C14.5576 46.9962 13.7134 46.5537 12.8075 46.5124C11.6378 46.4593 10.6001 45.7395 10.1369 44.6567C9.77631 43.8189 9.06395 43.1846 8.19328 42.925C7.0705 42.5916 6.23501 41.6416 6.04153 40.4793C5.89202 39.5795 5.34969 38.7918 4.56697 38.3286C3.55559 37.7327 2.97221 36.6116 3.06016 35.4374C3.12758 34.5258 2.79046 33.6319 2.13965 32.9947C1.2983 32.1745 0.999286 30.9443 1.3628 29.8232C1.64422 28.9558 1.52989 28.0059 1.04912 27.23C0.427636 26.2299 0.427636 24.9642 1.04912 23.9641C1.52989 23.1882 1.64422 22.2383 1.3628 21.3709C0.999286 20.2498 1.2983 19.0196 2.13965 18.1995C2.79046 17.5622 3.12758 16.6683 3.06016 15.7567C2.97221 14.5825 3.55852 13.4585 4.56697 12.8655C5.34969 12.4053 5.89202 11.6176 6.04153 10.7148C6.23501 9.55248 7.0705 8.60547 8.19328 8.26915C9.06395 8.00953 9.77631 7.37524 10.1369 6.53739C10.603 5.45467 11.6378 4.73483 12.8075 4.68173C13.7134 4.64042 14.5576 4.19495 15.1058 3.4692C15.8153 2.53105 16.9908 2.08262 18.14 2.30978C19.0312 2.48679 19.9546 2.25963 20.6611 1.68434C21.5728 0.943846 22.8217 0.790437 23.8829 1.29197C24.7066 1.67844 25.6564 1.67844 26.4773 1.29197Z" stroke="black" stroke-width="0.6" stroke-miterlimit="10"/>
<path d="M25.1653 47.7986C37.3486 47.7986 47.225 37.8594 47.225 25.5986C47.225 13.3378 37.3486 3.39844 25.1653 3.39844C12.982 3.39844 3.10547 13.3378 3.10547 25.5986C3.10547 37.8594 12.982 47.7986 25.1653 47.7986Z" stroke="black" stroke-width="0.3" stroke-miterlimit="10"/>
<path d="M25.1705 40.4623C33.3256 40.4623 39.9365 33.8093 39.9365 25.6023C39.9365 17.3953 33.3256 10.7422 25.1705 10.7422C17.0154 10.7422 10.4043 17.3953 10.4043 25.6023C10.4043 33.8093 17.0154 40.4623 25.1705 40.4623Z" stroke="black" stroke-width="0.43" stroke-miterlimit="10"/>
<path d="M26.6113 25.3787C26.6113 26.7388 26.1892 28.0132 25.6204 29.1078C24.8465 30.6123 23.8029 31.7777 23.2166 32.3706C22.9381 32.6509 22.7622 32.8043 22.7622 32.8043L22.6919 32.7394C22.645 32.6981 22.5775 32.6332 22.4925 32.5506L22.4485 32.5064C22.4016 32.465 22.3518 32.4149 22.299 32.3618C21.2759 31.3292 18.9131 28.5915 18.9131 25.3787C18.9131 21.278 22.7622 17.9531 22.7622 17.9531C22.7622 17.9531 25.3038 20.1481 26.2566 23.172C26.3475 23.4611 26.4237 23.7591 26.4823 24.063C26.5644 24.4878 26.6113 24.9303 26.6113 25.3787Z" stroke="black" stroke-miterlimit="10"/>
<path d="M22.7915 32.8043V17.9531" stroke="black" stroke-miterlimit="10"/>
<path d="M33.209 22.2912L32.5788 21.6953L31.8696 22.4535C32.1156 22.4388 32.3267 22.4299 32.4908 22.427C32.4967 22.5833 32.5028 22.7839 32.5028 23.0199V23.0494L33.209 22.2912Z" fill="black"/>
<path d="M33.3108 21.9547L33.2727 21.5829L32.9004 21.5682C32.7216 21.5593 29.1333 21.4236 26.2722 23.1937C26.363 23.4829 26.4393 23.7808 26.4979 24.0847C28.3154 22.8751 30.5757 22.5477 31.8568 22.4621L32.5662 21.7039L33.1965 22.2998L32.49 23.058C32.4871 24.6393 32.2144 27.737 30.3206 29.7697C28.4298 31.7934 25.3722 32.2625 23.8009 32.3687L23.0944 33.1239L22.8745 32.9174V33.2655C22.9243 33.2655 22.9859 33.2655 23.0621 33.2655C23.6455 33.2655 24.9852 33.2154 26.495 32.8289C28.0076 32.4424 29.6874 31.7167 30.9509 30.3625C33.8444 27.265 33.3343 22.17 33.3108 21.9547Z" fill="black"/>
<path d="M32.5001 23.0227V23.0521L23.8109 32.3629C23.5881 32.3747 23.3976 32.3835 23.2422 32.3865C23.8285 31.7935 24.8721 30.6282 25.646 29.1237L31.8669 22.4562C32.1132 22.4415 32.3242 22.4326 32.4884 22.4297C32.4943 22.586 32.5001 22.7867 32.5001 23.0227Z" fill="black"/>
<path d="M25.647 29.1172C24.8731 30.6219 23.8295 31.7872 23.2432 32.3802C23.3985 32.3773 23.5891 32.3684 23.8119 32.3566L23.1054 33.1119L22.7888 32.8139L22.7184 32.749L22.5191 32.5602L22.4751 32.5159L22.7888 32.1796L23.1816 31.7577L25.647 29.1172Z" fill="black"/>
<path d="M32.5028 23.0494V23.0199C32.5028 22.7839 32.4967 22.5833 32.4908 22.427C32.3267 22.427 32.1156 22.4388 31.8696 22.4535L32.5788 21.6953L33.209 22.2912L32.5028 23.0494Z" fill="black"/>
</svg>
