<svg width="132" height="51" viewBox="0 0 132 51" fill="none" xmlns="http://www.w3.org/2000/svg">
<path d="M69.3489 22.6589C67.9116 22.6589 66.8289 22.2575 66.1009 21.4549C65.3823 20.6522 65.0229 19.4575 65.0229 17.8709C65.0229 16.2842 65.3823 15.0895 66.1009 14.2869C66.8289 13.4842 67.9116 13.0829 69.3489 13.0829C69.8436 13.0829 70.3289 13.1435 70.8049 13.2649C71.2809 13.3862 71.7429 13.5542 72.1909 13.7689V14.7349C71.7616 14.5015 71.3183 14.3289 70.8609 14.2169C70.4036 14.0955 69.9369 14.0349 69.4609 14.0349C68.6769 14.0349 68.0329 14.1702 67.5289 14.4409C67.0343 14.7115 66.6656 15.1315 66.4229 15.7009C66.1896 16.2609 66.0729 16.9842 66.0729 17.8709C66.0729 18.7575 66.1896 19.4855 66.4229 20.0549C66.6656 20.6149 67.0343 21.0302 67.5289 21.3009C68.0329 21.5715 68.6769 21.7069 69.4609 21.7069C69.9369 21.7069 70.4036 21.6509 70.8609 21.5389C71.3183 21.4269 71.7616 21.2542 72.1909 21.0209V21.9869C71.8923 22.1269 71.5843 22.2482 71.2669 22.3509C70.9589 22.4535 70.6416 22.5282 70.3149 22.5749C69.9976 22.6309 69.6756 22.6589 69.3489 22.6589ZM77.0079 22.7569C76.3919 22.7569 75.8646 22.6495 75.4259 22.4349C74.9872 22.2202 74.6512 21.9075 74.4179 21.4969C74.1939 21.0862 74.0819 20.5822 74.0819 19.9849V15.5609H75.0899V19.7609C75.0899 20.4702 75.2439 20.9929 75.5519 21.3289C75.8692 21.6555 76.3546 21.8189 77.0079 21.8189C77.6612 21.8189 78.1419 21.6555 78.4499 21.3289C78.7672 20.9929 78.9259 20.4702 78.9259 19.7609V15.5609H79.9339V19.9849C79.9339 20.8715 79.6772 21.5575 79.1639 22.0429C78.6599 22.5189 77.9412 22.7569 77.0079 22.7569ZM82.1757 22.5469V16.1209C82.2877 16.0742 82.5023 15.9949 82.8197 15.8829C83.1463 15.7709 83.5337 15.6682 83.9817 15.5749C84.439 15.4815 84.9103 15.4349 85.3957 15.4349C85.4703 15.4349 85.545 15.4442 85.6197 15.4629C85.6943 15.4815 85.769 15.5002 85.8437 15.5189V16.4149C85.601 16.3869 85.363 16.3729 85.1297 16.3729C84.9057 16.3729 84.6863 16.3869 84.4717 16.4149C84.257 16.4335 84.0423 16.4615 83.8277 16.4989C83.613 16.5362 83.3983 16.5735 83.1837 16.6109V22.5469H82.1757ZM89.861 22.7569C89.553 22.7569 89.2403 22.7242 88.923 22.6589C88.615 22.5935 88.3257 22.4815 88.055 22.3229C87.7937 22.1642 87.579 21.9495 87.411 21.6789C87.2523 21.3989 87.173 21.0489 87.173 20.6289C87.173 20.0502 87.2803 19.5882 87.495 19.2429C87.719 18.8882 88.0223 18.6362 88.405 18.4869C88.797 18.3282 89.245 18.2489 89.749 18.2489C90.1317 18.2489 90.463 18.2722 90.743 18.3189C91.023 18.3655 91.2703 18.4355 91.485 18.5289C91.709 18.6129 91.9097 18.7109 92.087 18.8229L92.283 19.7469C92.0683 19.5882 91.7557 19.4529 91.345 19.3409C90.9437 19.2195 90.5003 19.1589 90.015 19.1589C89.427 19.1589 88.9743 19.2709 88.657 19.4949C88.3397 19.7189 88.181 20.0455 88.181 20.4749C88.181 20.8202 88.2743 21.0955 88.461 21.3009C88.657 21.5062 88.8997 21.6509 89.189 21.7349C89.4877 21.8189 89.791 21.8609 90.099 21.8609C90.7057 21.8609 91.163 21.8189 91.471 21.7349C91.7883 21.6415 91.947 21.4362 91.947 21.1189V17.9129C91.947 17.3715 91.7883 16.9749 91.471 16.7229C91.1537 16.4709 90.701 16.3449 90.113 16.3449C89.7397 16.3449 89.343 16.4009 88.923 16.5129C88.5123 16.6155 88.1577 16.7835 87.859 17.0169V16.0089C88.1483 15.8222 88.5357 15.6822 89.021 15.5889C89.5063 15.4862 89.9777 15.4349 90.435 15.4349C90.743 15.4349 91.0277 15.4675 91.289 15.5329C91.5503 15.5889 91.7837 15.6775 91.989 15.7989C92.1943 15.9109 92.367 16.0602 92.507 16.2469C92.6563 16.4242 92.7683 16.6342 92.843 16.8769C92.927 17.1102 92.969 17.3762 92.969 17.6749V21.0629C92.969 21.5575 92.8197 21.9262 92.521 22.1689C92.2317 22.4115 91.849 22.5702 91.373 22.6449C90.9063 22.7195 90.4023 22.7569 89.861 22.7569ZM97.403 22.6589C96.9083 22.6589 96.493 22.5095 96.157 22.2109C95.821 21.9029 95.653 21.4502 95.653 20.8529V16.4849H94.435V15.5609H95.653V13.5869H96.661V15.5609H98.467V16.4849H96.661V20.5309C96.661 20.9229 96.7216 21.2169 96.843 21.4129C96.9643 21.6089 97.2116 21.7069 97.585 21.7069C97.753 21.7069 97.9163 21.6929 98.075 21.6649C98.2336 21.6275 98.3643 21.5855 98.467 21.5389V22.4909C98.3363 22.5375 98.1683 22.5749 97.963 22.6029C97.767 22.6402 97.5803 22.6589 97.403 22.6589ZM103.175 22.7569C102.512 22.7569 101.938 22.6215 101.453 22.3509C100.968 22.0709 100.594 21.6555 100.333 21.1049C100.072 20.5542 99.9409 19.8682 99.9409 19.0469C99.9409 17.8429 100.212 16.9422 100.753 16.3449C101.304 15.7382 102.055 15.4349 103.007 15.4349C103.754 15.4349 104.351 15.6029 104.799 15.9389C105.256 16.2749 105.583 16.7275 105.779 17.2969C105.975 17.8662 106.068 18.5102 106.059 19.2289H100.445L100.515 18.3049H105.401L105.009 18.4449C104.981 17.7449 104.804 17.2222 104.477 16.8769C104.16 16.5315 103.67 16.3589 103.007 16.3589C102.55 16.3589 102.167 16.4429 101.859 16.6109C101.56 16.7789 101.336 17.0729 101.187 17.4929C101.038 17.9035 100.963 18.4822 100.963 19.2289C100.963 20.0782 101.159 20.7269 101.551 21.1749C101.952 21.6135 102.512 21.8329 103.231 21.8329C103.576 21.8329 103.894 21.8095 104.183 21.7629C104.472 21.7069 104.738 21.6322 104.981 21.5389C105.224 21.4455 105.438 21.3429 105.625 21.2309V22.2669C105.289 22.4255 104.916 22.5469 104.505 22.6309C104.104 22.7149 103.66 22.7569 103.175 22.7569ZM110.845 22.7569C110.509 22.7569 110.154 22.7055 109.781 22.6029C109.408 22.5095 109.053 22.3322 108.717 22.0709C108.39 21.8002 108.12 21.4175 107.905 20.9229C107.7 20.4189 107.597 19.7655 107.597 18.9629C107.597 17.8802 107.858 17.0262 108.381 16.4009C108.913 15.7662 109.716 15.4489 110.789 15.4489C110.994 15.4489 111.237 15.4769 111.517 15.5329C111.797 15.5889 112.072 15.6589 112.343 15.7429C112.614 15.8269 112.838 15.9155 113.015 16.0089L112.665 16.3589V12.6069H113.673V21.3429C113.673 21.6042 113.58 21.8282 113.393 22.0149C113.216 22.1922 112.982 22.3369 112.693 22.4489C112.404 22.5515 112.096 22.6262 111.769 22.6729C111.442 22.7289 111.134 22.7569 110.845 22.7569ZM110.859 21.8329C111.344 21.8329 111.764 21.7769 112.119 21.6649C112.483 21.5529 112.665 21.4129 112.665 21.2449V16.8629C112.376 16.6949 112.063 16.5735 111.727 16.4989C111.4 16.4149 111.088 16.3729 110.789 16.3729C110.285 16.3729 109.874 16.4849 109.557 16.7089C109.249 16.9235 109.02 17.2269 108.871 17.6189C108.731 18.0015 108.661 18.4495 108.661 18.9629C108.661 19.4669 108.717 19.9382 108.829 20.3769C108.941 20.8062 109.156 21.1562 109.473 21.4269C109.79 21.6975 110.252 21.8329 110.859 21.8329ZM65.4429 38.5469V29.2089H66.4509V38.5469H65.4429ZM68.7636 32.1209C68.9876 32.0089 69.2162 31.9109 69.4496 31.8269C69.6922 31.7335 69.9349 31.6589 70.1776 31.6029C70.4296 31.5469 70.6816 31.5049 70.9336 31.4769C71.1949 31.4489 71.4562 31.4349 71.7176 31.4349C72.3989 31.4349 72.9402 31.5375 73.3416 31.7429C73.7429 31.9389 74.0322 32.2282 74.2096 32.6109C74.3962 32.9935 74.4896 33.4555 74.4896 33.9969V38.5469H73.4816V33.9969C73.4816 33.8289 73.4582 33.6515 73.4116 33.4649C73.3742 33.2782 73.2949 33.1009 73.1736 32.9329C73.0522 32.7555 72.8656 32.6155 72.6136 32.5129C72.3616 32.4009 72.0256 32.3449 71.6056 32.3449C71.3162 32.3449 71.0176 32.3682 70.7096 32.4149C70.4016 32.4615 70.0889 32.5315 69.7716 32.6249V38.5469H68.7636V32.1209ZM79.0583 38.5469L76.1043 31.5609H77.1823L79.7583 37.6789L79.5343 37.7349L82.0403 31.5609H83.0483L80.0803 38.5469H79.0583ZM87.0558 38.7569C86.3931 38.7569 85.8191 38.6215 85.3338 38.3509C84.8484 38.0709 84.4751 37.6555 84.2138 37.1049C83.9524 36.5542 83.8218 35.8682 83.8218 35.0469C83.8218 33.8429 84.0924 32.9422 84.6338 32.3449C85.1844 31.7382 85.9358 31.4349 86.8878 31.4349C87.6344 31.4349 88.2318 31.6029 88.6798 31.9389C89.1371 32.2749 89.4638 32.7275 89.6598 33.2969C89.8558 33.8662 89.9491 34.5102 89.9398 35.2289H84.3258L84.3958 34.3049H89.2818L88.8898 34.4449C88.8618 33.7449 88.6844 33.2222 88.3578 32.8769C88.0404 32.5315 87.5504 32.3589 86.8878 32.3589C86.4304 32.3589 86.0478 32.4429 85.7398 32.6109C85.4411 32.7789 85.2171 33.0729 85.0678 33.4929C84.9184 33.9035 84.8438 34.4822 84.8438 35.2289C84.8438 36.0782 85.0398 36.7269 85.4318 37.1749C85.8331 37.6135 86.3931 37.8329 87.1118 37.8329C87.4571 37.8329 87.7744 37.8095 88.0638 37.7629C88.3531 37.7069 88.6191 37.6322 88.8618 37.5389C89.1044 37.4455 89.3191 37.3429 89.5058 37.2309V38.2669C89.1698 38.4255 88.7964 38.5469 88.3858 38.6309C87.9844 38.7149 87.5411 38.7569 87.0558 38.7569ZM93.802 38.7569C93.298 38.7569 92.8733 38.7055 92.528 38.6029C92.192 38.5002 91.842 38.3555 91.478 38.1689V37.1049C91.7673 37.2635 92.024 37.3989 92.248 37.5109C92.472 37.6229 92.7007 37.7069 92.934 37.7629C93.1673 37.8095 93.4333 37.8329 93.732 37.8329C94.1987 37.8329 94.5767 37.7302 94.866 37.5249C95.1647 37.3195 95.314 37.0535 95.314 36.7269C95.314 36.4655 95.2393 36.2649 95.09 36.1249C94.95 35.9849 94.768 35.8682 94.544 35.7749C94.32 35.6815 94.0867 35.5835 93.844 35.4809C93.5733 35.4062 93.298 35.3269 93.018 35.2429C92.7473 35.1495 92.4953 35.0329 92.262 34.8929C92.038 34.7435 91.856 34.5569 91.716 34.3329C91.576 34.0995 91.506 33.8009 91.506 33.4369C91.506 33.0822 91.576 32.7789 91.716 32.5269C91.8653 32.2749 92.0567 32.0695 92.29 31.9109C92.5233 31.7429 92.7847 31.6215 93.074 31.5469C93.3633 31.4722 93.6527 31.4349 93.942 31.4349C94.362 31.4349 94.7213 31.4909 95.02 31.6029C95.3187 31.7149 95.6267 31.8409 95.944 31.9809V32.9889C95.5893 32.8022 95.272 32.6529 94.992 32.5409C94.712 32.4195 94.3807 32.3589 93.998 32.3589C93.6153 32.3589 93.27 32.4382 92.962 32.5969C92.6633 32.7462 92.514 32.9795 92.514 33.2969C92.514 33.5582 92.5887 33.7682 92.738 33.9269C92.8967 34.0762 93.102 34.1975 93.354 34.2909C93.606 34.3749 93.8767 34.4589 94.166 34.5429C94.3993 34.6175 94.642 34.7015 94.894 34.7949C95.146 34.8789 95.3793 34.9955 95.594 35.1449C95.8087 35.2849 95.9813 35.4715 96.112 35.7049C96.252 35.9382 96.322 36.2369 96.322 36.6009C96.322 37.0955 96.196 37.5062 95.944 37.8329C95.692 38.1502 95.37 38.3835 94.978 38.5329C94.5953 38.6822 94.2033 38.7569 93.802 38.7569ZM100.411 38.6589C99.9161 38.6589 99.5008 38.5095 99.1648 38.2109C98.8288 37.9029 98.6608 37.4502 98.6608 36.8529V32.4849H97.4428V31.5609H98.6608V29.5869H99.6688V31.5609H101.475V32.4849H99.6688V36.5309C99.6688 36.9229 99.7294 37.2169 99.8508 37.4129C99.9721 37.6089 100.219 37.7069 100.593 37.7069C100.761 37.7069 100.924 37.6929 101.083 37.6649C101.241 37.6275 101.372 37.5855 101.475 37.5389V38.4909C101.344 38.5375 101.176 38.5749 100.971 38.6029C100.775 38.6402 100.588 38.6589 100.411 38.6589ZM103.355 38.5469V31.5609H104.363V38.5469H103.355ZM103.299 30.3149V29.2089H104.419V30.3149H103.299ZM106.662 32.1209C106.886 32.0089 107.115 31.9109 107.348 31.8269C107.591 31.7335 107.833 31.6589 108.076 31.6029C108.328 31.5469 108.58 31.5049 108.832 31.4769C109.093 31.4489 109.355 31.4349 109.616 31.4349C110.297 31.4349 110.839 31.5375 111.24 31.7429C111.641 31.9389 111.931 32.2282 112.108 32.6109C112.295 32.9935 112.388 33.4555 112.388 33.9969V38.5469H111.38V33.9969C111.38 33.8289 111.357 33.6515 111.31 33.4649C111.273 33.2782 111.193 33.1009 111.072 32.9329C110.951 32.7555 110.764 32.6155 110.512 32.5129C110.26 32.4009 109.924 32.3449 109.504 32.3449C109.215 32.3449 108.916 32.3682 108.608 32.4149C108.3 32.4615 107.987 32.5315 107.67 32.6249V38.5469H106.662V32.1209ZM117.475 38.7569C116.756 38.7569 116.159 38.6169 115.683 38.3369C115.216 38.0475 114.866 37.6415 114.633 37.1189C114.399 36.5869 114.283 35.9615 114.283 35.2429C114.283 34.4402 114.39 33.7915 114.605 33.2969C114.819 32.7929 115.095 32.4102 115.431 32.1489C115.776 31.8782 116.149 31.6962 116.551 31.6029C116.961 31.5002 117.358 31.4489 117.741 31.4489C118.179 31.4489 118.595 31.5095 118.987 31.6309C119.388 31.7429 119.715 31.9249 119.967 32.1769C120.228 32.4289 120.359 32.7649 120.359 33.1849V38.8409C120.359 39.1209 120.317 39.4055 120.233 39.6949C120.149 39.9842 119.995 40.2502 119.771 40.4929C119.556 40.7449 119.248 40.9455 118.847 41.0949C118.455 41.2442 117.946 41.3189 117.321 41.3189C116.919 41.3189 116.551 41.2815 116.215 41.2069C115.879 41.1322 115.585 41.0622 115.333 40.9969V40.0449C115.482 40.0822 115.65 40.1242 115.837 40.1709C116.033 40.2269 116.243 40.2735 116.467 40.3109C116.7 40.3482 116.947 40.3669 117.209 40.3669C117.843 40.3669 118.31 40.2875 118.609 40.1289C118.917 39.9795 119.117 39.7882 119.211 39.5549C119.304 39.3309 119.351 39.1022 119.351 38.8689V37.8469L119.701 38.1969C119.523 38.2902 119.299 38.3789 119.029 38.4629C118.758 38.5469 118.483 38.6169 118.203 38.6729C117.923 38.7289 117.68 38.7569 117.475 38.7569ZM117.475 37.8329C117.773 37.8329 118.086 37.7955 118.413 37.7209C118.749 37.6369 119.061 37.5109 119.351 37.3429V33.3249C119.351 33.0635 119.276 32.8675 119.127 32.7369C118.987 32.5969 118.795 32.5035 118.553 32.4569C118.31 32.4009 118.049 32.3729 117.769 32.3729C117.087 32.3729 116.574 32.5082 116.229 32.7789C115.883 33.0402 115.65 33.3902 115.529 33.8289C115.407 34.2675 115.347 34.7389 115.347 35.2429C115.347 36.0082 115.51 36.6335 115.837 37.1189C116.163 37.5949 116.709 37.8329 117.475 37.8329Z" fill="#7E7E7E"/>
<path d="M30.9139 9.86719H20.4965C19.631 9.86719 18.8021 10.2097 18.1904 10.8214L10.8224 18.1894C10.2107 18.8011 9.86816 19.63 9.86816 20.4956V30.9129C9.86816 31.7784 10.2107 32.6073 10.8224 33.219L18.1904 40.587C18.8021 41.1987 19.631 41.5412 20.4965 41.5412H30.9139C31.7795 41.5412 32.6083 41.1987 33.22 40.587L40.588 33.219C41.1997 32.6073 41.5423 31.7784 41.5423 30.9129V20.4956C41.5423 19.63 41.1997 18.8011 40.588 18.1894L33.22 10.8214C32.6083 10.2097 31.7795 9.86719 30.9139 9.86719Z" stroke="black" stroke-width="0.53" stroke-miterlimit="10"/>
<path d="M33.5801 1H17.6141C16.2021 1 14.8495 1.56183 13.8507 2.56063L2.56063 13.8507C1.56183 14.8495 1 16.2021 1 17.6141V33.5801C1 34.9921 1.56183 36.3476 2.56063 37.3434L13.8507 48.6335C14.8495 49.6323 16.2021 50.1941 17.6141 50.1941H33.5801C34.9921 50.1941 36.3476 49.6323 37.3434 48.6335L48.6335 37.3434C49.6323 36.3446 50.1941 34.9921 50.1941 33.5801V17.6141C50.1941 16.2021 49.6323 14.8466 48.6335 13.8507L37.3434 2.56063C36.3446 1.56183 34.9921 1 33.5801 1Z" stroke="black" stroke-width="0.6" stroke-miterlimit="10"/>
<path d="M32.7095 2.76562H18.0363C16.7387 2.76562 15.4956 3.28196 14.5777 4.19989L4.20184 14.5758C3.28391 15.4937 2.76758 16.7367 2.76758 18.0344V32.7075C2.76758 34.0052 3.28391 35.2509 4.20184 36.1661L14.5777 46.542C15.4956 47.4599 16.7387 47.9763 18.0363 47.9763H32.7095C34.0071 47.9763 35.2529 47.4599 36.1681 46.542L46.5439 36.1661C47.4619 35.2482 47.9782 34.0052 47.9782 32.7075V18.0344C47.9782 16.7367 47.4619 15.491 46.5439 14.5758L36.1681 4.19989C35.2502 3.28196 34.0071 2.76562 32.7095 2.76562Z" stroke="black" stroke-width="0.3" stroke-miterlimit="10"/>
<path d="M25.8637 26.1331C28.0902 26.1331 30.3166 26.1331 32.5396 26.1331C32.6044 26.1331 32.7032 26.099 32.7305 26.1706C32.7544 26.2286 32.6657 26.2729 32.6214 26.3172C31.2712 27.6879 27.8515 31.1656 27.4867 31.5304C27.4117 31.6054 27.381 31.6838 27.381 31.7895C27.381 33.0272 27.381 32.8192 27.3844 34.0569C27.3844 34.183 27.3844 34.0569 27.3912 34.2239C26.4911 34.7899 25.4376 35.4616 24.5374 36.031C24.4897 36.0617 24.3499 36.1503 24.3499 36.1503C24.3499 36.1503 24.3499 35.9901 24.3499 35.9355C24.3499 34.0807 24.3499 33.6682 24.3499 31.8168C24.3499 31.6975 24.3158 31.6088 24.2306 31.5236C22.7474 30.0234 21.2677 28.5198 19.788 27.0196C19.5459 26.7741 19.3072 26.5286 19.0686 26.2831C19.0379 26.2524 18.9799 26.2252 19.0004 26.174C19.0208 26.1263 19.0822 26.1433 19.1265 26.1433C20.1528 26.1433 21.1791 26.1433 22.2087 26.1433C23.4259 26.1433 24.6431 26.1433 25.8603 26.1433L25.8637 26.1331Z" stroke="black" stroke-miterlimit="10"/>
<path d="M24.6201 22.3407C25.7216 22.3407 26.6146 21.4477 26.6146 20.3461C26.6146 19.2446 25.7216 18.3516 24.6201 18.3516C23.5185 18.3516 22.6255 19.2446 22.6255 20.3461C22.6255 21.4477 23.5185 22.3407 24.6201 22.3407Z" stroke="black" stroke-miterlimit="10"/>
<path d="M30.0166 18.9287C30.9958 18.9287 31.7894 18.1349 31.7894 17.1558C31.7894 16.1766 30.9958 15.3828 30.0166 15.3828C29.0374 15.3828 28.2437 16.1766 28.2437 17.1558C28.2437 18.1349 29.0374 18.9287 30.0166 18.9287Z" stroke="black" stroke-miterlimit="10"/>
<path d="M33.0571 24.2656H18.7271V26.1818H33.0571V24.2656Z" stroke="black" stroke-miterlimit="10"/>
</svg>
