<svg width="117" height="51" viewBox="0 0 117 51" fill="none" xmlns="http://www.w3.org/2000/svg">
<path d="M65.4796 22.5469V13.2089H66.4876V17.4089H71.4576V13.2089H72.4656V22.5469H71.4576V18.3609H66.4876V22.5469H65.4796ZM77.6588 22.7569C76.9961 22.7569 76.4221 22.6215 75.9368 22.3509C75.4515 22.0709 75.0781 21.6555 74.8168 21.1049C74.5555 20.5542 74.4248 19.8682 74.4248 19.0469C74.4248 17.8429 74.6955 16.9422 75.2368 16.3449C75.7875 15.7382 76.5388 15.4349 77.4908 15.4349C78.2375 15.4349 78.8348 15.6029 79.2828 15.9389C79.7401 16.2749 80.0668 16.7275 80.2628 17.2969C80.4588 17.8662 80.5521 18.5102 80.5428 19.2289H74.9288L74.9988 18.3049H79.8848L79.4928 18.4449C79.4648 17.7449 79.2875 17.2222 78.9608 16.8769C78.6435 16.5315 78.1535 16.3589 77.4908 16.3589C77.0335 16.3589 76.6508 16.4429 76.3428 16.6109C76.0441 16.7789 75.8201 17.0729 75.6708 17.4929C75.5215 17.9035 75.4468 18.4822 75.4468 19.2289C75.4468 20.0782 75.6428 20.7269 76.0348 21.1749C76.4361 21.6135 76.9961 21.8329 77.7148 21.8329C78.0601 21.8329 78.3775 21.8095 78.6668 21.7629C78.9561 21.7069 79.2221 21.6322 79.4648 21.5389C79.7075 21.4455 79.9221 21.3429 80.1088 21.2309V22.2669C79.7728 22.4255 79.3995 22.5469 78.9888 22.6309C78.5875 22.7149 78.1441 22.7569 77.6588 22.7569ZM83.439 22.5469H82.431V12.9009H83.439V22.5469ZM88.4289 22.7429C88.2236 22.7429 87.9903 22.7149 87.7289 22.6589C87.4769 22.6029 87.2296 22.5329 86.9869 22.4489C86.7443 22.3649 86.5296 22.2762 86.3429 22.1829L86.6929 21.8329V25.5849H85.6849V16.8209C85.6849 16.5315 85.7736 16.2982 85.9509 16.1209C86.1376 15.9435 86.3756 15.8082 86.6649 15.7149C86.9543 15.6122 87.2623 15.5422 87.5889 15.5049C87.9156 15.4582 88.2236 15.4349 88.5129 15.4349C89.0729 15.4349 89.6003 15.5515 90.0949 15.7849C90.5896 16.0182 90.9909 16.4149 91.2989 16.9749C91.6069 17.5255 91.7609 18.2769 91.7609 19.2289C91.7609 19.9475 91.6303 20.5729 91.3689 21.1049C91.1169 21.6275 90.7436 22.0335 90.2489 22.3229C89.7543 22.6029 89.1476 22.7429 88.4289 22.7429ZM88.4289 21.8189C88.9423 21.8189 89.3623 21.7115 89.6889 21.4969C90.0249 21.2729 90.2769 20.9649 90.4449 20.5729C90.6129 20.1809 90.6969 19.7329 90.6969 19.2289C90.6969 18.7249 90.6409 18.2535 90.5289 17.8149C90.4169 17.3762 90.2023 17.0262 89.8849 16.7649C89.5676 16.4942 89.1056 16.3589 88.4989 16.3589C88.0136 16.3589 87.5889 16.4149 87.2249 16.5269C86.8703 16.6389 86.6929 16.7975 86.6929 17.0029V21.3289C86.9823 21.4969 87.2716 21.6229 87.5609 21.7069C87.8503 21.7815 88.1396 21.8189 88.4289 21.8189ZM69.3856 38.6589C67.9482 38.6589 66.8656 38.2575 66.1376 37.4549C65.4189 36.6522 65.0596 35.4575 65.0596 33.8709C65.0596 32.2842 65.4189 31.0895 66.1376 30.2869C66.8656 29.4842 67.9482 29.0829 69.3856 29.0829C69.8802 29.0829 70.3656 29.1435 70.8416 29.2649C71.3176 29.3862 71.7796 29.5542 72.2276 29.7689V30.7349C71.7982 30.5015 71.3549 30.3289 70.8976 30.2169C70.4402 30.0955 69.9736 30.0349 69.4976 30.0349C68.7136 30.0349 68.0696 30.1702 67.5656 30.4409C67.0709 30.7115 66.7022 31.1315 66.4596 31.7009C66.2262 32.2609 66.1096 32.9842 66.1096 33.8709C66.1096 34.7575 66.2262 35.4855 66.4596 36.0549C66.7022 36.6149 67.0709 37.0302 67.5656 37.3009C68.0696 37.5715 68.7136 37.7069 69.4976 37.7069C69.9736 37.7069 70.4402 37.6509 70.8976 37.5389C71.3549 37.4269 71.7982 37.2542 72.2276 37.0209V37.9869C71.9289 38.1269 71.6209 38.2482 71.3036 38.3509C70.9956 38.4535 70.6782 38.5282 70.3516 38.5749C70.0342 38.6309 69.7122 38.6589 69.3856 38.6589ZM77.0025 38.7569C76.3399 38.7569 75.7659 38.6215 75.2805 38.3509C74.7952 38.0709 74.4219 37.6555 74.1605 37.1049C73.8992 36.5542 73.7685 35.8682 73.7685 35.0469C73.7685 33.8429 74.0392 32.9422 74.5805 32.3449C75.1312 31.7382 75.8825 31.4349 76.8345 31.4349C77.5812 31.4349 78.1785 31.6029 78.6265 31.9389C79.0839 32.2749 79.4105 32.7275 79.6065 33.2969C79.8025 33.8662 79.8959 34.5102 79.8865 35.2289H74.2725L74.3425 34.3049H79.2285L78.8365 34.4449C78.8085 33.7449 78.6312 33.2222 78.3045 32.8769C77.9872 32.5315 77.4972 32.3589 76.8345 32.3589C76.3772 32.3589 75.9945 32.4429 75.6865 32.6109C75.3879 32.7789 75.1639 33.0729 75.0145 33.4929C74.8652 33.9035 74.7905 34.4822 74.7905 35.2289C74.7905 36.0782 74.9865 36.7269 75.3785 37.1749C75.7799 37.6135 76.3399 37.8329 77.0585 37.8329C77.4039 37.8329 77.7212 37.8095 78.0105 37.7629C78.2999 37.7069 78.5659 37.6322 78.8085 37.5389C79.0512 37.4455 79.2659 37.3429 79.4525 37.2309V38.2669C79.1165 38.4255 78.7432 38.5469 78.3325 38.6309C77.9312 38.7149 77.4879 38.7569 77.0025 38.7569ZM81.7748 32.1209C81.9988 32.0089 82.2275 31.9109 82.4608 31.8269C82.7035 31.7335 82.9461 31.6589 83.1888 31.6029C83.4408 31.5469 83.6928 31.5049 83.9448 31.4769C84.2061 31.4489 84.4675 31.4349 84.7288 31.4349C85.4101 31.4349 85.9515 31.5375 86.3528 31.7429C86.7541 31.9389 87.0435 32.2282 87.2208 32.6109C87.4075 32.9935 87.5008 33.4555 87.5008 33.9969V38.5469H86.4928V33.9969C86.4928 33.8289 86.4695 33.6515 86.4228 33.4649C86.3855 33.2782 86.3061 33.1009 86.1848 32.9329C86.0635 32.7555 85.8768 32.6155 85.6248 32.5129C85.3728 32.4009 85.0368 32.3449 84.6168 32.3449C84.3275 32.3449 84.0288 32.3682 83.7208 32.4149C83.4128 32.4615 83.1001 32.5315 82.7828 32.6249V38.5469H81.7748V32.1209ZM91.9435 38.6589C91.4488 38.6589 91.0335 38.5095 90.6975 38.2109C90.3615 37.9029 90.1935 37.4502 90.1935 36.8529V32.4849H88.9755V31.5609H90.1935V29.5869H91.2015V31.5609H93.0075V32.4849H91.2015V36.5309C91.2015 36.9229 91.2622 37.2169 91.3835 37.4129C91.5048 37.6089 91.7522 37.7069 92.1255 37.7069C92.2935 37.7069 92.4568 37.6929 92.6155 37.6649C92.7742 37.6275 92.9048 37.5855 93.0075 37.5389V38.4909C92.8768 38.5375 92.7088 38.5749 92.5035 38.6029C92.3075 38.6402 92.1208 38.6589 91.9435 38.6589ZM97.7154 38.7569C97.0528 38.7569 96.4788 38.6215 95.9934 38.3509C95.5081 38.0709 95.1348 37.6555 94.8734 37.1049C94.6121 36.5542 94.4814 35.8682 94.4814 35.0469C94.4814 33.8429 94.7521 32.9422 95.2934 32.3449C95.8441 31.7382 96.5954 31.4349 97.5474 31.4349C98.2941 31.4349 98.8914 31.6029 99.3394 31.9389C99.7968 32.2749 100.123 32.7275 100.319 33.2969C100.515 33.8662 100.609 34.5102 100.599 35.2289H94.9854L95.0554 34.3049H99.9414L99.5494 34.4449C99.5214 33.7449 99.3441 33.2222 99.0174 32.8769C98.7001 32.5315 98.2101 32.3589 97.5474 32.3589C97.0901 32.3589 96.7074 32.4429 96.3994 32.6109C96.1008 32.7789 95.8768 33.0729 95.7274 33.4929C95.5781 33.9035 95.5034 34.4822 95.5034 35.2289C95.5034 36.0782 95.6994 36.7269 96.0914 37.1749C96.4928 37.6135 97.0528 37.8329 97.7714 37.8329C98.1168 37.8329 98.4341 37.8095 98.7234 37.7629C99.0128 37.7069 99.2788 37.6322 99.5214 37.5389C99.7641 37.4455 99.9788 37.3429 100.165 37.2309V38.2669C99.8294 38.4255 99.4561 38.5469 99.0454 38.6309C98.6441 38.7149 98.2008 38.7569 97.7154 38.7569ZM102.488 38.5469V32.1209C102.6 32.0742 102.814 31.9949 103.132 31.8829C103.458 31.7709 103.846 31.6682 104.294 31.5749C104.751 31.4815 105.222 31.4349 105.708 31.4349C105.782 31.4349 105.857 31.4442 105.932 31.4629C106.006 31.4815 106.081 31.5002 106.156 31.5189V32.4149C105.913 32.3869 105.675 32.3729 105.442 32.3729C105.218 32.3729 104.998 32.3869 104.784 32.4149C104.569 32.4335 104.354 32.4615 104.14 32.4989C103.925 32.5362 103.71 32.5735 103.496 32.6109V38.5469H102.488ZM109.739 38.7569C109.235 38.7569 108.81 38.7055 108.465 38.6029C108.129 38.5002 107.779 38.3555 107.415 38.1689V37.1049C107.704 37.2635 107.961 37.3989 108.185 37.5109C108.409 37.6229 108.638 37.7069 108.871 37.7629C109.104 37.8095 109.37 37.8329 109.669 37.8329C110.136 37.8329 110.514 37.7302 110.803 37.5249C111.102 37.3195 111.251 37.0535 111.251 36.7269C111.251 36.4655 111.176 36.2649 111.027 36.1249C110.887 35.9849 110.705 35.8682 110.481 35.7749C110.257 35.6815 110.024 35.5835 109.781 35.4809C109.51 35.4062 109.235 35.3269 108.955 35.2429C108.684 35.1495 108.432 35.0329 108.199 34.8929C107.975 34.7435 107.793 34.5569 107.653 34.3329C107.513 34.0995 107.443 33.8009 107.443 33.4369C107.443 33.0822 107.513 32.7789 107.653 32.5269C107.802 32.2749 107.994 32.0695 108.227 31.9109C108.46 31.7429 108.722 31.6215 109.011 31.5469C109.3 31.4722 109.59 31.4349 109.879 31.4349C110.299 31.4349 110.658 31.4909 110.957 31.6029C111.256 31.7149 111.564 31.8409 111.881 31.9809V32.9889C111.526 32.8022 111.209 32.6529 110.929 32.5409C110.649 32.4195 110.318 32.3589 109.935 32.3589C109.552 32.3589 109.207 32.4382 108.899 32.5969C108.6 32.7462 108.451 32.9795 108.451 33.2969C108.451 33.5582 108.526 33.7682 108.675 33.9269C108.834 34.0762 109.039 34.1975 109.291 34.2909C109.543 34.3749 109.814 34.4589 110.103 34.5429C110.336 34.6175 110.579 34.7015 110.831 34.7949C111.083 34.8789 111.316 34.9955 111.531 35.1449C111.746 35.2849 111.918 35.4715 112.049 35.7049C112.189 35.9382 112.259 36.2369 112.259 36.6009C112.259 37.0955 112.133 37.5062 111.881 37.8329C111.629 38.1502 111.307 38.3835 110.915 38.5329C110.532 38.6822 110.14 38.7569 109.739 38.7569Z" fill="#7E7E7E"/>
<path d="M50.2416 25.5971C50.2416 27.1775 48.2165 28.5384 47.923 30.0297C47.6176 31.5684 48.9637 33.5964 48.3766 35.0136C47.7807 36.4546 45.388 36.9349 44.5311 38.2158C43.6683 39.5055 44.1308 41.8982 43.0397 42.9923C41.9457 44.0864 39.553 43.6209 38.2632 44.4837C36.9824 45.3405 36.502 47.7332 35.0611 48.3292C33.6468 48.9162 31.6158 47.5731 30.0771 47.8755C28.5828 48.172 27.2248 50.1941 25.6445 50.1941C24.0642 50.1941 22.7033 48.1691 21.2119 47.8755C19.6731 47.5702 17.6451 48.9162 16.2278 48.3292C14.7869 47.7332 14.3066 45.3405 13.0257 44.4837C11.736 43.6209 9.34326 44.0834 8.2492 42.9923C7.15513 41.8982 7.62063 39.5055 6.75783 38.2158C5.90096 36.9349 3.50826 36.4546 2.91231 35.0136C2.32525 33.5994 3.66837 31.5684 3.36595 30.0297C3.06945 28.5354 1.04736 27.1775 1.04736 25.5971C1.04736 24.0168 3.07242 22.6559 3.36595 21.1645C3.67134 19.6257 2.32525 17.5977 2.91231 16.1805C3.50826 14.7395 5.90096 14.2592 6.75783 12.9784C7.62063 11.6886 7.1581 9.29591 8.2492 8.20185C9.34326 7.10779 11.736 7.57328 13.0257 6.71049C14.3066 5.85362 14.7869 3.4609 16.2278 2.86495C17.6421 2.27789 19.6731 3.621 21.2119 3.31858C22.7062 3.02209 24.0642 1 25.6445 1C27.2248 1 28.5857 3.02505 30.0771 3.31858C31.6158 3.62397 33.6438 2.27789 35.0611 2.86495C36.502 3.4609 36.9824 5.85362 38.2632 6.71049C39.553 7.57328 41.9457 7.11075 43.0397 8.20185C44.1338 9.29591 43.6683 11.6886 44.5311 12.9784C45.388 14.2592 47.7807 14.7395 48.3766 16.1805C48.9637 17.5948 47.6206 19.6257 47.923 21.1645C48.2195 22.6589 50.2416 24.0168 50.2416 25.5971Z" stroke="black" stroke-width="0.6" stroke-miterlimit="10"/>
<path d="M26.3486 47.4934C25.9038 47.4934 24.6141 47.0368 24.03 46.595C23.3332 46.0672 22.6098 45.5217 21.7321 45.3497C21.5216 45.3082 21.2963 45.2875 21.0621 45.2875C20.3801 45.2875 19.716 45.4594 19.0726 45.6255C18.5419 45.7618 18.0438 45.8923 17.6494 45.8923C17.4982 45.8923 17.3796 45.8745 17.2847 45.833C16.8874 45.6699 16.5079 45.0206 16.1403 44.392C15.6926 43.63 15.233 42.8443 14.4799 42.3403C13.7209 41.8333 12.7721 41.6999 11.933 41.5813C11.2185 41.4805 10.4772 41.3767 10.1807 41.0802C9.88425 40.7837 9.78048 40.0425 9.67967 39.3279C9.56107 38.4888 9.42765 37.5401 8.92064 36.781C8.4166 36.0279 7.63089 35.5684 6.8689 35.1207C6.24034 34.753 5.59398 34.3735 5.42794 33.9762C5.2708 33.5967 5.45759 32.8792 5.63549 32.1854C5.84897 31.3611 6.08913 30.4301 5.91123 29.5259C5.73926 28.6482 5.19371 27.9278 4.66595 27.228C4.22418 26.6439 3.76758 26.0361 3.76758 25.5944C3.76758 25.1526 4.22418 24.5448 4.66892 23.9607C5.19668 23.2639 5.74223 22.5405 5.91419 21.6628C6.09209 20.7585 5.85193 19.8246 5.63845 19.0033C5.45759 18.3095 5.27377 17.592 5.43091 17.2125C5.59398 16.8152 6.2433 16.4357 6.87187 16.068C7.63386 15.6203 8.41957 15.1607 8.92361 14.4076C9.43061 13.6486 9.56404 12.6998 9.68263 11.8608C9.78344 11.1462 9.88721 10.405 10.1837 10.1085C10.4802 9.81198 11.2214 9.70821 11.936 9.6074C12.7751 9.4888 13.7238 9.35538 14.4829 8.84838C15.233 8.34434 15.6955 7.55863 16.1432 6.79664C16.5109 6.16807 16.8904 5.52172 17.2877 5.35568C17.3826 5.31713 17.5012 5.29638 17.6524 5.29638C18.0467 5.29638 18.5478 5.42684 19.0756 5.56322C19.719 5.72926 20.3831 5.90123 21.065 5.90123C21.2993 5.90123 21.5246 5.88047 21.7351 5.83896C22.6127 5.667 23.3332 5.12145 24.0329 4.59369C24.617 4.15191 25.2248 3.69531 25.6666 3.69531C26.1084 3.69531 26.7162 4.15191 27.3003 4.59369C27.9971 5.12145 28.7205 5.667 29.5981 5.83896C29.8086 5.88047 30.034 5.90123 30.2682 5.90123C30.9502 5.90123 31.6144 5.72926 32.2577 5.56322C32.7885 5.42684 33.2866 5.29638 33.6809 5.29638C33.8321 5.29638 33.9507 5.31417 34.0456 5.35568C34.4429 5.51875 34.8224 6.16807 35.1901 6.79664C35.6378 7.55863 36.0973 8.34434 36.8504 8.84838C37.6095 9.35538 38.5582 9.4888 39.3973 9.6074C40.1119 9.70821 40.8531 9.81198 41.1496 10.1085C41.4461 10.405 41.5499 11.1462 41.6507 11.8608C41.7693 12.6998 41.9027 13.6486 42.4097 14.4076C42.9137 15.1607 43.6994 15.6203 44.4614 16.068C45.09 16.4357 45.7364 16.8152 45.9024 17.2125C46.0595 17.592 45.8727 18.3095 45.6949 19.0033C45.4814 19.8275 45.2412 20.7585 45.4191 21.6628C45.5911 22.5405 46.1366 23.2609 46.6644 23.9607C47.1062 24.5448 47.5628 25.1526 47.5628 25.5944C47.5628 26.0361 47.1062 26.6439 46.6614 27.228C46.1337 27.9248 45.5881 28.6482 45.4161 29.5259C45.2382 30.4301 45.4784 31.3641 45.6919 32.1854C45.8727 32.8792 46.0566 33.5967 45.8994 33.9762C45.7364 34.3735 45.087 34.753 44.4585 35.1207C43.6965 35.5684 42.9108 36.0279 42.4067 36.781C41.8997 37.5401 41.7663 38.4888 41.6477 39.3279C41.5469 40.0425 41.4431 40.7837 41.1466 41.0802C40.8501 41.3767 40.1089 41.4805 39.3944 41.5813C38.5553 41.6999 37.6065 41.8333 36.8475 42.3403C36.0944 42.8443 35.6348 43.63 35.1871 44.392C34.8195 45.0206 34.4399 45.667 34.0426 45.833C33.9478 45.8715 33.8292 45.8923 33.678 45.8923C33.2836 45.8923 32.7825 45.7618 32.2548 45.6255C31.6114 45.4594 30.9472 45.2875 30.2652 45.2875C30.031 45.2875 29.8057 45.3082 29.5952 45.3497C28.7175 45.5217 27.9971 46.0672 27.2973 46.595C26.7132 47.0368 26.7903 47.4934 26.3486 47.4934Z" stroke="black" stroke-width="0.3" stroke-miterlimit="10"/>
<path d="M38.5868 30.7981C41.4473 23.6534 37.9742 15.5424 30.8296 12.6818C23.6847 9.82115 15.5736 13.2942 12.713 20.439C9.85241 27.5838 13.3254 35.695 20.4702 38.5555C27.6151 41.4161 35.7262 37.943 38.5868 30.7981Z" stroke="black" stroke-width="0.42" stroke-miterlimit="10"/>
<path d="M19.6226 24.9132C19.6226 21.373 22.4926 18.5 26.0357 18.5C29.5788 18.5 32.4489 21.3701 32.4489 24.9132" stroke="black" stroke-miterlimit="10"/>
<path d="M19.6149 24.375C19.6149 24.375 19.6001 24.375 19.5912 24.375C18.3963 24.375 17.4238 25.3445 17.4238 26.5424C17.4238 27.7402 18.3934 28.7097 19.5912 28.7097C19.6001 28.7097 19.606 28.7097 19.6149 28.7097V24.381V24.375Z" stroke="black" stroke-miterlimit="10"/>
<path d="M32.4365 24.375C32.4365 24.375 32.4513 24.375 32.4602 24.375C33.6551 24.375 34.6276 25.3445 34.6276 26.5424C34.6276 27.7402 33.6581 28.7097 32.4602 28.7097C32.4513 28.7097 32.4454 28.7097 32.4365 28.7097V24.381V24.375Z" stroke="black" stroke-miterlimit="10"/>
<path d="M27.771 32.1413H29.2386C31.0059 32.1413 32.4379 30.7092 32.4379 28.942V26.1016" stroke="black" stroke-miterlimit="10"/>
<path d="M27.9075 31.625H26.0396V32.5086H27.9075V31.625Z" fill="black" stroke="black" stroke-miterlimit="10"/>
<path d="M29.7738 23.3828V27.9251H25.4242L23.4792 29.8671V27.9251H22.4771V23.3828H29.7738Z" stroke="black" stroke-miterlimit="10"/>
<path d="M24.4146 25.9024C24.5062 25.9024 24.5806 25.8281 24.5806 25.7363C24.5806 25.6446 24.5062 25.5703 24.4146 25.5703C24.3229 25.5703 24.2485 25.6446 24.2485 25.7363C24.2485 25.8281 24.3229 25.9024 24.4146 25.9024Z" stroke="black" stroke-miterlimit="10"/>
<path d="M26.2451 25.9024C26.3368 25.9024 26.4112 25.8281 26.4112 25.7363C26.4112 25.6446 26.3368 25.5703 26.2451 25.5703C26.1534 25.5703 26.0791 25.6446 26.0791 25.7363C26.0791 25.8281 26.1534 25.9024 26.2451 25.9024Z" stroke="black" stroke-miterlimit="10"/>
<path d="M28.0874 25.9024C28.1791 25.9024 28.2535 25.8281 28.2535 25.7363C28.2535 25.6446 28.1791 25.5703 28.0874 25.5703C27.9957 25.5703 27.9214 25.6446 27.9214 25.7363C27.9214 25.8281 27.9957 25.9024 28.0874 25.9024Z" stroke="black" stroke-miterlimit="10"/>
</svg>
